<?xml version="1.0"?>
<svg xmlns="http://www.w3.org/2000/svg" version="1.1" width="1254" height="1254" xmlns:bx="https://boxy-svg.com">
  <defs>
    <export>
      <file format="svg" href="#object-0"></file>
    </export>
  </defs>
  <path d="M0 0 C1.3 0.4 1.3 0.4 2.6 0.8 C11.6 4 22.8 9.8 29.5 16.5 C31.5 18.4 33.7 19.5 36.1 20.7 C38.7 22.5 40.8 24.7 43 27 C44.7 28.4 46.3 29.8 48 31.2 C66.2 47.8 80.1 71.7 87.9 94.8 C88.8 97.5 89.9 100.1 91 102.8 C93.7 109.5 95.5 116.5 97.4 123.6 C97.8 125.1 98.2 126.7 98.6 128.3 C101.8 139.8 103.8 151.4 105.4 163.1 C105.6 163.9 105.7 164.7 105.8 165.4 C108 181.3 109.7 197.1 111.2 213 C111.5 216 111.7 219 112 222.1 C113.7 239.8 115.3 257.5 116.9 275.2 C116.9 276.1 117 277 117.1 277.9 C117.8 286.5 118.6 295 119.3 303.6 C121.1 324.6 123.2 345.4 125.6 366.3 C126.1 370.9 126.6 375.5 127.1 380.2 C127.3 381.5 127.4 382.8 127.6 384.2 C127.8 386.2 128 388.2 128.2 390.2 C129.2 399.2 130.2 408.2 131.3 417.1 C132.1 424.4 133 431.7 133.8 438.9 C134 441 134.2 443 134.5 445 C136.3 461.1 137.3 477 137.2 493.2 C137.2 494 137.2 494.8 137.2 495.6 C137.2 497.9 137.2 500.2 137.2 502.5 C137.2 503.2 137.2 503.9 137.2 504.6 C137.1 508.2 136.8 511.5 136 515 C136.8 514.9 137.7 514.8 138.5 514.8 C148.9 515.5 157.8 524.4 164.6 531.8 C166.8 534.5 168.9 537.2 171 540 C171.6 540.7 172.1 541.5 172.7 542.2 C174.2 544.1 175.6 546.1 177 548 C177.5 548.6 178 549.2 178.4 549.9 C180.9 553.2 182.6 555.8 183 560 C183.7 560 184.3 560 185 560 C191.2 571.2 197.3 582.4 203.1 593.8 C203.5 594.7 204 595.6 204.4 596.5 C211 609.6 211 609.6 211 616 C211.7 616 212.3 616 213 616 C213.3 616.8 213.7 617.6 214 618.4 C216.8 625.1 216.8 625.1 219.7 631.9 C221 635 221 635 221.9 637.6 C223.3 641.8 224.9 645.9 226.5 650 C228.5 655 230.4 659.9 232 665 C232.4 666.3 232.9 667.6 233.3 668.9 C236.1 677 238.7 685.1 240.9 693.4 C241.1 694.2 241.3 695 241.5 695.8 C241.7 696.6 241.9 697.3 242.1 698.1 C242.3 698.7 242.5 699.4 242.6 700.1 C243 702 243 702 243 706 C243.7 706 244.3 706 245 706 C247.6 716.2 250 726.4 252.2 736.7 C253.3 741.8 254.4 746.9 255.6 751.9 C257.3 759.3 258.7 766.6 260 774 C260.2 775 260.3 775.9 260.5 776.9 C263.4 793.9 264.8 810.6 265 827.8 C265 830.2 265 832.5 265.1 834.8 C265.5 873.6 265.5 873.6 263 892 C262.8 893.2 262.8 893.2 262.7 894.4 C260.7 909.3 256.3 923 251 937 C250.3 937 249.7 937 249 937 C248.8 937.8 248.6 938.6 248.4 939.4 C244.7 948.6 237.1 956 228.7 960.9 C222 962.9 215.7 963.3 209.4 960.1 C199.6 953.8 192.5 945.5 186 936 C185.5 935.3 185 934.5 184.5 933.8 C176.8 921.8 171.1 908.2 166 895 C165.3 893.3 164.7 891.7 164 890 C164 890.7 163.9 891.4 163.9 892.1 C163.4 899.3 162.3 906.4 160.9 913.5 C160.2 916.7 159.7 919.9 159.2 923.1 C157.1 935.7 153.9 947.6 149.8 959.7 C148.8 962.7 147.8 965.7 146.8 968.8 C143.8 977.8 140 986.4 136 995 C135.7 995.7 135.3 996.5 135 997.2 C133.8 999.7 132.7 1002.2 131.5 1004.7 C131.1 1005.5 130.8 1006.3 130.4 1007.1 C127.9 1012.3 125.2 1017.2 122 1022 C121.6 1022.6 121.2 1023.2 120.8 1023.8 C111.5 1038.3 101.2 1051.8 89 1064 C89.3 1066.7 89.8 1069.3 90.5 1071.9 C91.9 1076.8 92.2 1081 92 1086 C92.9 1086.3 93.7 1086.5 94.6 1086.8 C97.9 1088 100.9 1089.4 104 1091 C104 1091.7 104 1092.3 104 1093 C105.3 1093.4 105.3 1093.4 106.6 1093.8 C110.2 1095.1 113 1096.7 116 1099 C116 1099.7 116 1100.3 116 1101 C116.7 1101.2 117.4 1101.4 118.1 1101.7 C121.7 1103.3 124.4 1105.6 127.3 1108.1 C127.9 1108.6 128.5 1109.1 129 1109.6 C139.8 1119 151.6 1129.9 153.3 1144.9 C153.5 1150.3 153.2 1154.5 150 1159 C142.5 1166.1 135.5 1166.4 125.7 1166.4 C120 1166.6 116.4 1167 112 1171 C110.3 1173.6 110.3 1173.6 109 1176.4 C105.4 1183.5 101.3 1186.8 94 1190 C83.3 1191.6 74.5 1188.7 65 1184 C60 1181.6 55.5 1180.9 50 1182 C45.1 1184 40.6 1186.5 36 1189 C29.7 1192.4 24.8 1192.9 17.8 1191.6 C12.2 1189.9 9.4 1186.6 6 1182 C5.4 1181.4 4.9 1180.7 4.3 1180.1 C-2.8 1168.8 -1.1 1154.7 -1 1142 C-0.3 1142 0.3 1142 1 1142 C0.9 1140.9 0.8 1139.9 0.8 1138.8 C0.8 1130 4.9 1121.6 9 1114 C3.5 1115.4 -1.8 1116.9 -7.1 1118.9 C-13.9 1121.4 -20.7 1123.1 -27.7 1124.5 C-29.2 1124.8 -30.6 1125.1 -32.1 1125.5 C-57.2 1131 -86.4 1130 -111.4 1124.5 C-115.3 1123.7 -119.3 1123.1 -123.2 1122.5 C-134.5 1120.4 -145.4 1115.2 -156 1111 C-155.7 1111.7 -155.3 1112.3 -155 1113 C-147 1129.8 -143.3 1152.1 -148.8 1170.3 C-149.5 1172.2 -150.2 1174.1 -151 1176 C-151.3 1176.8 -151.6 1177.6 -152 1178.4 C-154.9 1184.6 -158.2 1189.5 -164.7 1192.4 C-171 1194.6 -176.5 1195.5 -182.8 1192.8 C-186.4 1190.9 -189.9 1188.7 -193.3 1186.5 C-198.9 1183 -203.4 1181.9 -210 1183 C-212.6 1183.9 -215.2 1185 -217.7 1186.1 C-220.6 1187.2 -223 1187.3 -226 1187 C-226 1187.7 -226 1188.3 -226 1189 C-228 1189.1 -230.1 1189.1 -232.1 1189.1 C-233.3 1189.1 -234.4 1189.2 -235.6 1189.2 C-241 1188.9 -245.3 1187.4 -249.4 1183.8 C-252.3 1180.5 -254.2 1176.6 -256.3 1172.7 C-258.5 1169.2 -258.5 1169.2 -262 1167 C-265.2 1166.6 -268.5 1166.5 -271.8 1166.5 C-279.2 1166.4 -286.1 1166.3 -292.1 1161.3 C-292.5 1160.7 -293 1160.1 -293.4 1159.5 C-293.9 1158.9 -294.4 1158.3 -294.9 1157.7 C-298.3 1152.5 -297.6 1145.9 -297 1140 C-290.8 1117.7 -263 1100.5 -244.2 1089.8 C-243.2 1089.2 -243.2 1089.2 -242.2 1088.6 C-238.8 1086.7 -237 1086 -233 1086 C-233 1085.4 -233.1 1084.8 -233.1 1084.1 C-233.3 1078.5 -232.7 1074.3 -230.6 1069.1 C-229.8 1066.3 -230.1 1064.7 -231 1062 C-232.6 1060 -232.6 1060 -234.6 1058.2 C-241 1052.2 -245.9 1045.2 -250.9 1038.1 C-251.5 1037.2 -251.5 1037.2 -252.2 1036.3 C-255 1032.2 -255 1032.2 -255 1030 C-255.7 1030 -256.3 1030 -257 1030 C-261.6 1021.8 -265.8 1013.4 -270 1005 C-271 1002.9 -272.1 1000.9 -273.1 998.9 C-273.6 997.9 -273.6 997.9 -274.1 996.8 C-274.9 995.3 -275.6 993.8 -276.4 992.2 C-290.1 964.3 -298.3 930.9 -301 900 C-301.6 901.7 -301.6 901.7 -302.2 903.5 C-304 908.2 -306.5 912.2 -309.2 916.4 C-309.7 917.2 -310.2 917.9 -310.7 918.7 C-318.6 930.5 -318.6 930.5 -322 934 C-322.7 934 -323.3 934 -324 934 C-324 934.9 -323.9 935.7 -323.9 936.6 C-324.2 945.4 -328.1 954.5 -334 961 C-340.3 966.1 -345.8 968.8 -354 968 C-361.4 966.1 -366.5 962.3 -371 956 C-371 955.3 -371 954.7 -371 954 C-371.7 954 -372.3 954 -373 954 C-377.6 943.1 -381.8 932.6 -384 921 C-384.3 919.7 -384.6 918.4 -384.9 917.1 C-387.7 905.1 -389.3 893 -390.7 880.8 C-390.8 880.1 -390.9 879.4 -390.9 878.7 C-391.2 876.8 -391.4 875 -391.6 873.1 C-391.9 870.2 -391.9 870.2 -392.5 868.1 C-393 865.9 -393.1 864.1 -393.1 861.9 C-393.1 861.1 -393.1 860.3 -393.1 859.5 C-393.1 858.6 -393.1 857.7 -393.1 856.8 C-393.1 855.9 -393.1 855 -393.1 854.1 C-393.1 851.1 -393.1 848.2 -393.1 845.2 C-393.1 843.8 -393.1 843.8 -393.1 842.2 C-393.1 816.7 -392.3 792 -387 767 C-386.3 763.4 -385.7 759.9 -385.1 756.3 C-383.9 749.2 -382.1 742.2 -380.2 735.2 C-380 734.3 -380 734.3 -379.7 733.3 C-377.3 724.4 -374.7 715.8 -371.3 707.3 C-370 704 -368.9 700.6 -367.9 697.1 C-365.7 689.7 -362.8 682.7 -359.6 675.7 C-357.7 671.6 -356 667.5 -354.4 663.3 C-352.9 659.2 -351.2 655.2 -349.1 651.2 C-347.6 648.2 -346.2 645.2 -344.8 642.1 C-340.7 633.3 -336.4 624.7 -332 616 C-331.3 616 -330.7 616 -330 616 C-329.9 615.3 -329.8 614.6 -329.7 613.8 C-329 610.8 -327.9 608.5 -326.5 605.8 C-325.7 604.3 -325.7 604.3 -324.9 602.8 C-324.4 601.8 -323.9 600.8 -323.3 599.8 C-322.8 598.8 -322.3 597.8 -321.7 596.7 C-318.9 591.3 -315.9 586.1 -312.4 581.1 C-310.7 578.5 -309.1 576 -307.5 573.4 C-299.4 560.1 -290.7 547.4 -280 536 C-278.8 534.6 -277.7 533.3 -276.5 531.9 C-269.8 524.2 -262.4 518.1 -253 514 C-252 514 -251 514 -250 514 C-250.2 512.8 -250.3 511.5 -250.5 510.2 C-255.5 464.3 -245.2 415.6 -239.2 370.2 C-238.1 362.1 -237.1 354.1 -236.1 346 C-235.2 338.9 -234.3 331.7 -233.4 324.6 C-230 298.4 -226.8 272.1 -224 245.9 C-222.8 234.4 -221.5 222.9 -220.1 211.4 C-219.3 205.7 -218.6 199.9 -218 194.2 C-211.5 131.9 -211.5 131.9 -199.9 104.3 C-199 101.9 -198.2 99.4 -197.5 96.9 C-196.4 93 -194.9 89.6 -193 86 C-191.9 83.8 -191.1 81.6 -190.2 79.3 C-181.8 58 -166.5 35.8 -148 22 C-147.3 22 -146.7 22 -146 22 C-146 21.3 -146 20.7 -146 20 C-144.1 18.6 -144.1 18.6 -141.3 16.9 C-140.3 16.3 -139.3 15.6 -138.3 15 C-137.2 14.3 -136.1 13.7 -135 13 C-133.9 12.3 -132.9 11.6 -131.8 10.9 C-114.8 0.2 -96.8 -5.9 -77 -9 C-75.6 -9.3 -75.6 -9.3 -74.1 -9.5 C-49.1 -13.3 -23.6 -7.9 0 0 Z " fill="#FDF2DF" transform="translate(682,34)"></path>
  <path d="M0 0 C1.3 0.4 1.3 0.4 2.6 0.8 C11.6 4 22.8 9.8 29.5 16.5 C31.5 18.4 33.7 19.5 36.1 20.7 C38.7 22.5 40.8 24.7 43 27 C44.7 28.4 46.3 29.8 48 31.2 C66.2 47.8 80.1 71.7 87.9 94.8 C88.8 97.5 89.9 100.1 91 102.8 C93.7 109.5 95.5 116.5 97.4 123.6 C97.8 125.1 98.2 126.7 98.6 128.3 C101.8 139.8 103.8 151.4 105.4 163.1 C105.6 163.9 105.7 164.7 105.8 165.4 C108 181.3 109.7 197.1 111.2 213 C111.5 216 111.7 219 112 222.1 C113.7 239.8 115.3 257.5 116.9 275.2 C116.9 276.1 117 277 117.1 277.9 C117.8 286.5 118.6 295 119.3 303.6 C121.1 324.6 123.2 345.4 125.6 366.3 C126.1 370.9 126.6 375.5 127.1 380.2 C127.3 381.5 127.4 382.8 127.6 384.2 C127.8 386.2 128 388.2 128.2 390.2 C129.2 399.2 130.2 408.2 131.3 417.1 C132.1 424.4 133 431.7 133.8 438.9 C134 441 134.2 443 134.5 445 C136.3 461.1 137.3 477 137.2 493.2 C137.2 494 137.2 494.8 137.2 495.6 C137.2 497.9 137.2 500.2 137.2 502.5 C137.2 503.2 137.2 503.9 137.2 504.6 C137.1 508.2 136.8 511.5 136 515 C136.8 514.9 137.7 514.8 138.5 514.8 C148.9 515.5 157.8 524.4 164.6 531.8 C166.8 534.5 168.9 537.2 171 540 C171.6 540.7 172.1 541.5 172.7 542.2 C174.2 544.1 175.6 546.1 177 548 C177.5 548.6 178 549.2 178.4 549.9 C180.9 553.2 182.6 555.8 183 560 C183.7 560 184.3 560 185 560 C191.2 571.2 197.3 582.4 203.1 593.8 C203.5 594.7 204 595.6 204.4 596.5 C211 609.6 211 609.6 211 616 C211.7 616 212.3 616 213 616 C213.3 616.8 213.7 617.6 214 618.4 C216.8 625.1 216.8 625.1 219.7 631.9 C221 635 221 635 221.9 637.6 C223.3 641.8 224.9 645.9 226.5 650 C228.5 655 230.4 659.9 232 665 C232.4 666.3 232.9 667.6 233.3 668.9 C236.1 677 238.7 685.1 240.9 693.4 C241.1 694.2 241.3 695 241.5 695.8 C241.7 696.6 241.9 697.3 242.1 698.1 C242.3 698.7 242.5 699.4 242.6 700.1 C243 702 243 702 243 706 C243.7 706 244.3 706 245 706 C247.6 716.2 250 726.4 252.2 736.7 C253.3 741.8 254.4 746.9 255.6 751.9 C257.3 759.3 258.7 766.6 260 774 C260.2 775 260.3 775.9 260.5 776.9 C263.4 793.9 264.8 810.6 265 827.8 C265 830.2 265 832.5 265.1 834.8 C265.5 873.6 265.5 873.6 263 892 C262.8 893.2 262.8 893.2 262.7 894.4 C260.7 909.3 256.3 923 251 937 C250.3 937 249.7 937 249 937 C248.8 937.8 248.6 938.6 248.4 939.4 C244.7 948.6 237.1 956 228.7 960.9 C222 962.9 215.7 963.3 209.4 960.1 C199.6 953.8 192.5 945.5 186 936 C185.5 935.3 185 934.5 184.5 933.8 C176.8 921.8 171.1 908.2 166 895 C165.3 893.3 164.7 891.7 164 890 C164 890.7 163.9 891.4 163.9 892.1 C163.4 899.3 162.3 906.4 160.9 913.5 C160.2 916.7 159.7 919.9 159.2 923.1 C157.1 935.7 153.9 947.6 149.8 959.7 C148.8 962.7 147.8 965.7 146.8 968.8 C143.8 977.8 140 986.4 136 995 C135.7 995.7 135.3 996.5 135 997.2 C133.8 999.7 132.7 1002.2 131.5 1004.7 C131.1 1005.5 130.8 1006.3 130.4 1007.1 C127.9 1012.3 125.2 1017.2 122 1022 C121.6 1022.6 121.2 1023.2 120.8 1023.8 C111.5 1038.3 101.2 1051.8 89 1064 C89.3 1066.7 89.8 1069.3 90.5 1071.9 C91.9 1076.8 92.2 1081 92 1086 C92.9 1086.3 93.7 1086.5 94.6 1086.8 C97.9 1088 100.9 1089.4 104 1091 C104 1091.7 104 1092.3 104 1093 C105.3 1093.4 105.3 1093.4 106.6 1093.8 C110.2 1095.1 113 1096.7 116 1099 C116 1099.7 116 1100.3 116 1101 C116.7 1101.2 117.4 1101.4 118.1 1101.7 C121.7 1103.3 124.4 1105.6 127.3 1108.1 C127.9 1108.6 128.5 1109.1 129 1109.6 C139.8 1119 151.6 1129.9 153.3 1144.9 C153.5 1150.3 153.2 1154.5 150 1159 C142.5 1166.1 135.5 1166.4 125.7 1166.4 C120 1166.6 116.4 1167 112 1171 C110.3 1173.6 110.3 1173.6 109 1176.4 C105.4 1183.5 101.3 1186.8 94 1190 C83.3 1191.6 74.5 1188.7 65 1184 C60 1181.6 55.5 1180.9 50 1182 C45.1 1184 40.6 1186.5 36 1189 C29.7 1192.4 24.8 1192.9 17.8 1191.6 C12.2 1189.9 9.4 1186.6 6 1182 C5.4 1181.4 4.9 1180.7 4.3 1180.1 C-2.8 1168.8 -1.1 1154.7 -1 1142 C-0.3 1142 0.3 1142 1 1142 C0.9 1140.9 0.8 1139.9 0.8 1138.8 C0.8 1130 4.9 1121.6 9 1114 C3.5 1115.4 -1.8 1116.9 -7.1 1118.9 C-13.9 1121.4 -20.7 1123.1 -27.7 1124.5 C-29.2 1124.8 -30.6 1125.1 -32.1 1125.5 C-57.2 1131 -86.4 1130 -111.4 1124.5 C-115.3 1123.7 -119.3 1123.1 -123.2 1122.5 C-134.5 1120.4 -145.4 1115.2 -156 1111 C-155.7 1111.7 -155.3 1112.3 -155 1113 C-147 1129.8 -143.3 1152.1 -148.8 1170.3 C-149.5 1172.2 -150.2 1174.1 -151 1176 C-151.3 1176.8 -151.6 1177.6 -152 1178.4 C-154.9 1184.6 -158.2 1189.5 -164.7 1192.4 C-171 1194.6 -176.5 1195.5 -182.8 1192.8 C-186.4 1190.9 -189.9 1188.7 -193.3 1186.5 C-198.9 1183 -203.4 1181.9 -210 1183 C-212.6 1183.9 -215.2 1185 -217.7 1186.1 C-220.6 1187.2 -223 1187.3 -226 1187 C-226 1187.7 -226 1188.3 -226 1189 C-228 1189.1 -230.1 1189.1 -232.1 1189.1 C-233.3 1189.1 -234.4 1189.2 -235.6 1189.2 C-241 1188.9 -245.3 1187.4 -249.4 1183.8 C-252.3 1180.5 -254.2 1176.6 -256.3 1172.7 C-258.5 1169.2 -258.5 1169.2 -262 1167 C-265.2 1166.6 -268.5 1166.5 -271.8 1166.5 C-279.2 1166.4 -286.1 1166.3 -292.1 1161.3 C-292.5 1160.7 -293 1160.1 -293.4 1159.5 C-293.9 1158.9 -294.4 1158.3 -294.9 1157.7 C-298.3 1152.5 -297.6 1145.9 -297 1140 C-290.8 1117.7 -263 1100.5 -244.2 1089.8 C-243.2 1089.2 -243.2 1089.2 -242.2 1088.6 C-238.8 1086.7 -237 1086 -233 1086 C-233 1085.4 -233.1 1084.8 -233.1 1084.1 C-233.3 1078.5 -232.7 1074.3 -230.6 1069.1 C-229.8 1066.3 -230.1 1064.7 -231 1062 C-232.6 1060 -232.6 1060 -234.6 1058.2 C-241 1052.2 -245.9 1045.2 -250.9 1038.1 C-251.5 1037.2 -251.5 1037.2 -252.2 1036.3 C-255 1032.2 -255 1032.2 -255 1030 C-255.7 1030 -256.3 1030 -257 1030 C-261.6 1021.8 -265.8 1013.4 -270 1005 C-271 1002.9 -272.1 1000.9 -273.1 998.9 C-273.6 997.9 -273.6 997.9 -274.1 996.8 C-274.9 995.3 -275.6 993.8 -276.4 992.2 C-290.1 964.3 -298.3 930.9 -301 900 C-301.6 901.7 -301.6 901.7 -302.2 903.5 C-304 908.2 -306.5 912.2 -309.2 916.4 C-309.7 917.2 -310.2 917.9 -310.7 918.7 C-318.6 930.5 -318.6 930.5 -322 934 C-322.7 934 -323.3 934 -324 934 C-324 934.9 -323.9 935.7 -323.9 936.6 C-324.2 945.4 -328.1 954.5 -334 961 C-340.3 966.1 -345.8 968.8 -354 968 C-361.4 966.1 -366.5 962.3 -371 956 C-371 955.3 -371 954.7 -371 954 C-371.7 954 -372.3 954 -373 954 C-377.6 943.1 -381.8 932.6 -384 921 C-384.3 919.7 -384.6 918.4 -384.9 917.1 C-387.7 905.1 -389.3 893 -390.7 880.8 C-390.8 880.1 -390.9 879.4 -390.9 878.7 C-391.2 876.8 -391.4 875 -391.6 873.1 C-391.9 870.2 -391.9 870.2 -392.5 868.1 C-393 865.9 -393.1 864.1 -393.1 861.9 C-393.1 861.1 -393.1 860.3 -393.1 859.5 C-393.1 858.6 -393.1 857.7 -393.1 856.8 C-393.1 855.9 -393.1 855 -393.1 854.1 C-393.1 851.1 -393.1 848.2 -393.1 845.2 C-393.1 843.8 -393.1 843.8 -393.1 842.2 C-393.1 816.7 -392.3 792 -387 767 C-386.3 763.4 -385.7 759.9 -385.1 756.3 C-383.9 749.2 -382.1 742.2 -380.2 735.2 C-380 734.3 -380 734.3 -379.7 733.3 C-377.3 724.4 -374.7 715.8 -371.3 707.3 C-370 704 -368.9 700.6 -367.9 697.1 C-365.7 689.7 -362.8 682.7 -359.6 675.7 C-357.7 671.6 -356 667.5 -354.4 663.3 C-352.9 659.2 -351.2 655.2 -349.1 651.2 C-347.6 648.2 -346.2 645.2 -344.8 642.1 C-340.7 633.3 -336.4 624.7 -332 616 C-331.3 616 -330.7 616 -330 616 C-329.9 615.3 -329.8 614.6 -329.7 613.8 C-329 610.8 -327.9 608.5 -326.5 605.8 C-325.7 604.3 -325.7 604.3 -324.9 602.8 C-324.4 601.8 -323.9 600.8 -323.3 599.8 C-322.8 598.8 -322.3 597.8 -321.7 596.7 C-318.9 591.3 -315.9 586.1 -312.4 581.1 C-310.7 578.5 -309.1 576 -307.5 573.4 C-299.4 560.1 -290.7 547.4 -280 536 C-278.8 534.6 -277.7 533.3 -276.5 531.9 C-269.8 524.2 -262.4 518.1 -253 514 C-252 514 -251 514 -250 514 C-250.2 512.8 -250.3 511.5 -250.5 510.2 C-255.5 464.3 -245.2 415.6 -239.2 370.2 C-238.1 362.1 -237.1 354.1 -236.1 346 C-235.2 338.9 -234.3 331.7 -233.4 324.6 C-230 298.4 -226.8 272.1 -224 245.9 C-222.8 234.4 -221.5 222.9 -220.1 211.4 C-219.3 205.7 -218.6 199.9 -218 194.2 C-211.5 131.9 -211.5 131.9 -199.9 104.3 C-199 101.9 -198.2 99.4 -197.5 96.9 C-196.4 93 -194.9 89.6 -193 86 C-191.9 83.8 -191.1 81.6 -190.2 79.3 C-181.8 58 -166.5 35.8 -148 22 C-147.3 22 -146.7 22 -146 22 C-146 21.3 -146 20.7 -146 20 C-144.1 18.6 -144.1 18.6 -141.3 16.9 C-140.3 16.3 -139.3 15.6 -138.3 15 C-137.2 14.3 -136.1 13.7 -135 13 C-133.9 12.3 -132.9 11.6 -131.8 10.9 C-114.8 0.2 -96.8 -5.9 -77 -9 C-75.6 -9.3 -75.6 -9.3 -74.1 -9.5 C-49.1 -13.3 -23.6 -7.9 0 0 Z M-103 3 C-104.1 3.4 -105.2 3.8 -106.3 4.2 C-119.3 8.8 -131.2 15.4 -142 24 C-143 24.8 -144 25.6 -145.1 26.4 C-151 31.2 -156.3 36.1 -161 42 C-162.2 43.5 -162.2 43.5 -163.4 44.9 C-177.8 63 -188.4 83.8 -195 106 C-195.5 107.5 -196 109.1 -196.6 110.6 C-197 112.1 -197.5 113.5 -198 115 C-198.3 116 -198.6 116.9 -199 117.9 C-204 133.6 -206.4 149.8 -209 166 C-209.1 166.7 -209.2 167.4 -209.3 168.1 C-211.5 182.1 -213.3 196.2 -214.9 210.2 C-215.1 212.5 -215.4 214.8 -215.7 217.1 C-217.7 234.6 -219.5 252.1 -221.3 269.6 C-222.4 280.8 -223.7 291.9 -225.3 303 C-226.2 309.1 -226.8 315.2 -227.5 321.3 C-228.9 334.6 -230.8 347.9 -232.6 361.2 C-233 364.1 -233.4 367 -233.8 369.9 C-234 371.8 -234.3 373.7 -234.6 375.6 C-234.7 376.5 -234.8 377.4 -234.9 378.3 C-235.6 383.5 -236.4 388.6 -237.1 393.8 C-237.9 399.1 -238.5 404.5 -238.9 409.9 C-239.6 418.5 -240.6 427.2 -241.7 435.8 C-245.6 465.5 -247.3 494.2 -244 524 C-244.7 524 -245.3 524 -246 524 C-246.3 522.7 -246.7 521.4 -247 520 C-252.8 519.5 -255.4 520.5 -260 524 C-261.1 524.7 -262.2 525.4 -263.4 526.1 C-264.7 527.1 -264.7 527.1 -266 528 C-266 528.7 -266 529.3 -266 530 C-266.8 530.3 -266.8 530.3 -267.6 530.6 C-270.9 532.5 -273.2 535 -275.6 537.8 C-276.2 538.3 -276.7 538.9 -277.2 539.5 C-282.7 545.6 -287.4 552.2 -292 559 C-292.4 559.6 -292.9 560.3 -293.3 560.9 C-298.4 568.5 -303.4 576.1 -308 584 C-308.7 585.2 -309.4 586.4 -310.2 587.6 C-317.3 599.4 -323.7 611.7 -330 624 C-330.4 624.8 -330.8 625.5 -331.2 626.3 C-341.7 647 -351.6 667.9 -359.4 689.7 C-360.6 693 -361.9 696.3 -363.2 699.6 C-364.9 703.5 -366.1 707.5 -367.3 711.6 C-368 713.8 -368.7 716.1 -369.4 718.3 C-370 719.9 -370.5 721.4 -371 723 C-371.3 723.9 -371.6 724.7 -371.9 725.6 C-382.9 760.1 -388.6 795.8 -388.3 832 C-388.3 835.5 -388.3 838.9 -388.3 842.4 C-388.3 855.4 -387.7 868.1 -386 881 C-385.9 881.7 -385.8 882.4 -385.7 883.2 C-385.2 887.3 -384.6 891.5 -383.9 895.7 C-383.6 897.7 -383.3 899.7 -383 901.8 C-380.1 921.6 -375.8 943.8 -362 959 C-356.8 962.7 -351.2 962.8 -345 962 C-339.6 960.4 -336.9 957.1 -334.1 952.4 C-330.8 945.5 -329.1 938.7 -327.9 931.2 C-327.7 930.2 -327.5 929.1 -327.4 928.1 C-325.8 917.8 -325.4 907.7 -325.2 897.3 C-324.8 881 -324.8 881 -323.5 876.2 C-322.9 873.6 -322.8 871.1 -322.6 868.5 C-322.6 867.4 -322.5 866.3 -322.5 865.1 C-322.4 863.9 -322.4 862.8 -322.3 861.5 C-322.2 859 -322.1 856.5 -321.9 853.9 C-321.8 849.9 -321.6 846 -321.4 842 C-321.2 838.1 -321 834.3 -320.8 830.4 C-320.8 829.2 -320.7 828 -320.7 826.8 C-320.3 819.7 -319.4 813 -318 806 C-317.6 803.7 -317.2 801.3 -316.8 799 C-316.6 797.7 -316.4 796.5 -316.2 795.3 C-315.8 792.8 -315.4 790.2 -314.9 787.7 C-313.8 781.2 -312.6 774.9 -310.7 768.6 C-310 766 -309.4 763.4 -308.8 760.8 C-308.6 760 -308.4 759.2 -308.2 758.3 C-307.8 756.6 -307.4 755 -307 753.3 C-305.8 748.4 -304.2 744.2 -301.9 739.8 C-300.7 737.4 -300.3 735.1 -300.1 732.5 C-298.6 722.3 -295.1 712.5 -291.2 703 C-289.1 697.8 -287.4 692.6 -285.6 687.3 C-284.1 682.7 -282.3 678.4 -280 674 C-278.9 671.9 -278 669.6 -277.2 667.4 C-274.6 660.8 -271.5 654.6 -268.4 648.3 C-268.1 647.7 -267.8 647.1 -267.4 646.4 C-262.6 636.8 -257.4 627.7 -251 619 C-250.5 618.3 -250 617.5 -249.4 616.8 C-241.5 605.5 -230.2 591.9 -216 589 C-212.6 588.8 -209.4 588.8 -206 589 C-206.5 593 -207.5 596.2 -209.1 599.8 C-213 609.6 -215.1 620.4 -217.4 630.8 C-217.5 631.4 -217.7 632.1 -217.8 632.8 C-223.6 659.6 -229.3 687.2 -230.8 714.6 C-231 717 -231 717 -232 720 C-235.7 746.4 -236.4 773.1 -236.4 799.7 C-236.4 802 -236.4 804.2 -236.5 806.4 C-236.6 842.3 -233.6 877.8 -222 912 C-221.8 912.7 -221.5 913.5 -221.2 914.2 C-218.3 922.7 -215 930.5 -210 938 C-209.5 938.9 -209 939.7 -208.5 940.6 C-194.1 964.4 -173.2 979.5 -146.6 987 C-114.9 994.3 -83.2 986.9 -55.9 970.1 C-39.1 959.2 -23.9 945.1 -12 929 C-11.1 927.8 -10.2 926.7 -9.4 925.5 C-1.1 914.4 6.6 903.2 13 891 C13.8 889.5 14.6 888.1 15.3 886.6 C25.4 867.8 34 848.6 41.6 828.6 C41.8 828 42 827.4 42.3 826.7 C45.5 818.3 48.5 809.9 51 801.3 C51.7 798.8 52.5 796.6 53.5 794.2 C55.3 789.5 56.4 784.5 57.5 779.6 C58.6 774.5 59.8 769.5 61.5 764.6 C63.4 759 64.6 753.2 65.9 747.4 C69.1 733.3 69.1 733.3 70.6 727.5 C72 722 73.3 716.6 74.3 711 C74.6 709.6 74.9 708.2 75.1 706.8 C75.3 706 75.4 705.2 75.5 704.5 C76.2 700.9 76.9 697.3 77.6 693.7 C78.3 689.7 79.1 685.6 79.9 681.6 C80.2 679.5 80.6 677.5 81 675.4 C83.7 661.2 86.2 646.9 88.6 632.5 C89.1 629.3 89.7 626.1 90.2 623 C93.8 604.1 93.8 604.1 95 585 C96 585 97 585 98 585 C98 585.7 98 586.3 98 587 C98.8 587.2 99.5 587.3 100.3 587.5 C112.6 590.2 119.2 595.2 127 605 C127.8 605.8 128.7 606.6 129.6 607.4 C132.1 610.1 133.5 612.6 135 616 C135.7 616 136.3 616 137 616 C137.3 616.8 137.5 617.7 137.8 618.5 C139.1 622.4 140.9 625.9 142.8 629.6 C143.5 631 144.2 632.4 144.9 633.9 C145.3 634.6 145.6 635.3 146 636 C154.4 652.7 159.8 670.1 165 688 C165.7 688 166.3 688 167 688 C167.1 688.8 167.2 689.6 167.3 690.4 C168.2 697.8 169.6 704.9 171.5 712.1 C171.7 712.9 171.9 713.7 172.1 714.5 C173 717.6 173.8 720.6 175 723.6 C176.3 726.9 177.1 730.3 177.9 733.7 C179 738.2 180.2 742.7 181.6 747.2 C183.2 752.1 183.9 757 184.6 762.1 C184.9 764.9 184.9 764.9 185.5 767 C186.1 769.6 186.2 772 186.3 774.6 C187.2 787.2 190.7 799.6 194 811.7 C197.3 824.2 197.9 836.7 198.6 849.6 C198.9 854.8 199.3 859.9 199.7 865 C199.8 865.7 199.8 866.5 199.9 867.3 C200 868.9 200.2 870.4 200.3 872 C201.2 883 202 893.9 202.5 904.9 C202.6 905.8 202.6 906.7 202.7 907.6 C202.8 912 203 916.3 203.2 920.7 C203.6 932.5 204.3 945.3 212 955 C215.8 957.4 219.6 957.7 224 957 C234.2 953.1 240.4 945.4 245.2 935.9 C245.6 935.2 246 934.4 246.4 933.6 C252.3 922.3 254.6 909.9 256.7 897.4 C257 895.6 257 895.6 257.3 893.8 C259.8 879.4 260.2 865.2 260.1 850.7 C260.1 849.8 260.1 848.9 260.1 848 C260.1 825.8 259.2 804 256 782 C255.9 781 255.7 780.1 255.6 779.1 C252.6 758.7 247.8 738.8 242.7 718.9 C242.2 717 241.8 715 241.3 713.1 C239.4 705.3 237.1 697.6 234.8 689.9 C234.6 689.3 234.4 688.7 234.2 688 C231.2 678.5 228 669.1 224.4 659.8 C223.3 656.8 222.3 653.7 221.4 650.6 C219.7 644.8 217.3 639.5 215 634 C214 631.7 213 629.3 212 627 C211.3 625.3 210.6 623.7 209.9 622 C208.1 617.6 206.3 613.2 204.5 608.8 C194 583.8 180.1 559.1 163 538 C162.2 537 161.4 536 160.6 534.9 C158 532 155.5 529.7 152.5 527.3 C151.6 526.6 150.7 525.8 149.7 525.1 C144 520.7 141.1 519.6 134 520 C133.3 522.3 132.7 524.6 132 527 C131.8 525.7 131.6 524.3 131.4 523 C131.3 522.3 131.2 521.5 131.1 520.8 C131 517.9 131.4 515.4 131.7 512.6 C132.4 506.5 132.3 500.4 132.3 494.2 C132.3 493.5 132.3 492.7 132.3 491.9 C132.4 466.6 129.5 441.3 126.3 416.2 C122 382.8 118.6 349.3 115.5 315.8 C114.8 308.1 114.1 300.4 113.4 292.7 C113.1 290.2 112.9 287.7 112.7 285.2 C112.2 280.4 111.8 275.7 111.3 270.9 C111.1 268.5 110.9 266 110.6 263.5 C110.4 261.6 110.4 261.6 110.3 259.7 C109.4 250.5 108.6 241.3 107.8 232 C107.5 229.5 107.3 227 107.1 224.5 C106.7 219.5 106.2 214.5 105.8 209.5 C104.8 198.3 103.8 187.1 102 176 C101.6 173.5 101.3 170.9 100.9 168.4 C98.6 153.1 96.1 137.9 92 123 C91.8 122.2 91.5 121.3 91.3 120.4 C82.6 89.1 68.6 60.7 46 37 C45.4 36.3 44.7 35.6 44.1 34.9 C18.8 8 -17.7 -3.5 -53.6 -5.2 C-70.7 -5.5 -87 -2.8 -103 3 Z " fill="#C98A19" transform="translate(682,34)"></path>
  <path d="M 0 0 C -0.4 1.2 -0.8 2.4 -1.2 3.6 C -12.5 37.6 -17.8 73.5 -22.5 108.9 C -22.8 111.5 -23.2 114.1 -23.5 116.8 C -24.8 125.8 -25.7 134.9 -26.4 144.1 C -26.6 146.4 -26.8 148.8 -26.9 151.2 C -27.3 155.1 -27.6 159 -27.8 162.8 C -28 164.8 -28.1 166.8 -28.3 168.7 C -29.2 181.1 -29.2 193.4 -29.2 205.8 C -29.2 209.6 -29.2 213.4 -29.2 217.2 C -29.3 231.9 -28.6 246.4 -27 261 C -26.9 262.2 -26.8 263.4 -26.6 264.6 C -23.5 295.5 -15.8 325.8 0.5 352.5 C 1.9 354.7 2.8 356.9 3.7 359.4 C 5 363.1 6.8 365.8 9 369 C 9.8 371.4 9.8 371.4 10 373 C 10.7 373 11.3 373 12 373 C 12.5 374.5 12.5 374.5 13 376 C 14.5 377.2 15.9 378.4 17.4 379.6 C 19.1 381.1 20.2 382.6 21.4 384.4 C 24.1 388.4 27.3 391.1 31 394 C 31.7 394.5 32.4 395.1 33.1 395.6 C 39.5 400.4 46.4 403.9 53.6 407.3 C 57 409 57 409 60 411 C 62 411.6 64.1 412.1 66.2 412.6 C 67.8 412.9 67.8 412.9 69.5 413.3 C 77.9 414.9 86.1 415.2 94.6 415.2 C 96.7 415.2 98.8 415.3 101 415.3 C 109.4 415.4 116.9 414.5 125 412 C 126.3 411.6 126.245 411.082 127.6 411.2 C 138.037 412.112 187.862 377.01 187.3 376.1 C 187.5 375.4 206.5 355.9 206.8 355.3 C 208.2 352.7 209.8 350.2 211.5 347.8 C 212.1 346.9 212.7 346 213.3 345 C 213.9 344.4 214.4 343.7 215 343 C 215.7 343 224.3 331 225 331 C 225.1 330.5 225.2 329.9 225.3 329.4 C 226.2 326.2 227.8 323.6 229.4 320.8 C 230.1 319.7 230.7 318.6 231.3 317.5 C 231.9 316.7 235.6 313.2 235.9 312.3 C 236.8 309.5 238.188 307.275 239.288 304.575 C 239.988 304.575 241.2 301.9 241.4 300.8 C 241.9 297.6 243.191 296.994 244.791 294.294 C 245.491 294.294 246.2 291.7 246.2 291 C 247.1 287.7 248.3 285.1 249.9 282.2 C 251 280 252 277.8 253 275.5 C 254.3 272.6 255.6 269.7 257.1 266.9 C 258.9 263.4 260.152 260.267 261.252 256.467 C 261.752 255.567 262 254.1 262.5 253.1 C 264.1 249.8 270.1 236.1 270.3 235.1 C 271.4 228.3 273.3 222 275.6 215.4 C 278.5 206.7 280.7 197.8 283 189 C 283.7 189 287.1 179.2 287.2 178.3 C 288.1 169.8 289.7 161.8 291.9 153.5 C 295 141.4 297.2 129.3 299 117 C 299.7 117 301.7 106.4 302 101 C 302.7 101 303.345 96.62 303.345 95.62 C 303.845 85.72 305.9 78.7 308 69 C 308.7 69 309.101 65.81 309.101 65.01 C 308.901 48.41 309.8 50.1 313 45 C 313.62 44.945 314.375 42.901 314.9 41.5 C 318.131 32.879 315.8 33.3 317 29 C 319.8 28.5 321.5 28.7 323.9 30.3 C 325.7 31.8 327.4 33.2 329 35 C 329 35.7 330.3 37 331 37 C 333 39.9 335.3 45 336 45 C 342.4 62 343.3 69 344 69 C 344.5 71.4 344.9 73.8 345.4 76.2 C 345.6 77.2 345.6 77.2 345.8 78.3 C 346.2 80.5 346.6 82.8 347 85 C 347.3 86.4 347.3 86.4 347.5 87.8 C 351 107.9 351.2 128.2 351.2 148.5 C 351.2 149.5 351.2 150.5 351.2 151.5 C 351.2 154.3 351.2 157.1 351.2 160 C 351.2 160.8 351.2 161.7 351.2 162.6 C 351.2 163.3 351.2 164.1 351.1 165 C 351.1 165.6 351.1 166.3 351.1 167 C 351 169.1 350.5 171 350 173 C 349.8 175.1 349.6 177.1 349.5 179.2 C 349.4 180.4 349.3 181.6 349.2 182.9 C 349.1 185.4 345.8 212.9 345.7 214.1 C 344.3 227.2 336.7 267.1 335.2 272.5 C 334.7 274.6 334.2 276.7 333.6 278.9 C 333.3 279.9 333.1 280.9 332.8 282 C 331.7 286.2 330.7 290.3 329.6 294.5 C 329.1 296.7 323.9 313.2 322.4 317.5 C 322.2 318.2 322 319 321.7 319.7 C 321.2 321.5 314.1 337.5 312 342 C 310.8 344.5 309.7 347 308.5 349.4 C 308.2 350.1 286.5 390.4 286.2 391.1 C 284.8 394.5 283 397.6 281 400.8 C 280.5 401.7 262.5 424.2 262.2 424.8 C 260.9 427.1 259.5 428.9 257.7 430.9 C 255.6 433.2 253.5 435.6 251.5 438.1 C 249.1 440.9 246.6 443.1 243.7 445.5 C 242 447 235 454.3 235 455 C 232.4 456.8 221 465.3 221 466 C 214.5 469.8 214.5 469.8 211.1 471.1 C 210.4 471.4 205.4 475 204 475 C 204 475.7 197 481.2 196.1 481.7 C 195.1 482.2 194.1 482.8 193 483.3 C 191.1 484.4 189.3 485.4 187.4 486.5 C 186.2 487.2 186.2 487.2 185.1 487.9 C 184.4 488.3 175.9 492.2 174.8 492.5 C 170.647 493.674 171.956 494.931 159.6 497.4 C 127.562 505.377 87.5 506.1 56.9 494.7 C 53.9 493.5 51.3 492.3 49 490 C 48.3 487.7 47.6 485.3 47 483 C 46 482.7 45 482.3 44 482 C 42.7 479.8 41.5 477.7 40.4 475.4 C 34.4 464.4 25.9 458 14 454 C 2.2 453.1 2.2 453.1 -8 458 C -10.2 460.5 -12.2 463.2 -14 466 C -28.8 459.8 -40.2 436.2 -48 423 C -48.6 422 -49.2 421 -49.9 420 C -53.6 413.9 -56.4 407.9 -58.8 401.2 C -59.9 398.2 -61.1 395.3 -62.4 392.4 C -74.3 363.7 -81 334.6 -84.7 303.9 C -84.9 301.7 -85.2 299.6 -85.5 297.5 C -86.3 291.4 -86.2 285.2 -86.2 279.1 C -86.2 277.7 -86.2 276.3 -86.2 275 C -86.2 272.1 -86.2 269.2 -86.2 266.4 C -86.2 263.5 -86.2 260.6 -86.2 257.7 C -86.3 240 -85.9 222.6 -84 205 C -83.8 203.5 -83.8 203.5 -83.7 201.9 C -82.9 194.3 -82 186.8 -81.1 179.2 C -81 178.1 -80.9 177 -80.7 175.8 C -78 152.5 -75.2 129.3 -70.1 106.4 C -69.3 102.4 -68.5 98.4 -67.9 94.4 C -64.6 74.8 -53.9 57 -44 40 C -42.3 37 -40.7 34 -39 31 C -38.3 31 -36.6 29.7 -36.4 29 C -34.5 24.9 -31.9 21.9 -28.9 18.6 C -28.4 18 -27.8 17.3 -27.2 16.6 C -20.7 9.3 -10.8 -1.3 0 0 Z" fill="#E3A224" transform="translate(471,627)"></path>
  <path d="M 0 0 C 45.1 37.2 60.4 98.7 65.7 154.6 C 66.1 157.7 66.5 160.8 66.9 163.8 C 68.4 175.7 69.4 187.7 70.5 199.6 C 70.7 202 70.9 204.3 71.1 206.7 C 72 216.2 72.9 225.7 73.7 235.2 C 75.1 249.8 76.4 264.3 77.8 278.9 C 77.8 279.6 77.9 280.2 77.9 281 C 80.4 307.1 83.1 333.3 85.9 359.4 C 86.6 365 87.2 370.7 87.8 376.3 C 88.9 387.1 90.1 397.9 91.6 408.7 C 94 427.2 95.3 445.7 95.2 464.3 C 95.2 465.1 95.2 465.8 95.2 466.6 C 95.2 474.6 95 482.5 94.1 490.5 C 94 493.2 94.4 495.4 95 498 C 95.7 495.7 96.3 493.4 97 491 C 104.5 490.2 108.2 492.4 114 497 C 114.6 497.4 115.2 497.9 115.8 498.3 C 121.4 502.8 125.7 508.4 130 514 C 130.6 514.8 131.3 515.6 131.9 516.5 C 148.2 538 160.5 563.2 171 588 C 171.3 588.7 171.6 589.4 171.9 590.1 C 178.2 604.9 183.9 619.7 189 635 C 189.6 636.9 190.3 638.8 190.9 640.8 C 193 646.8 195 652.9 197 659 C 197.3 659.9 197.6 660.8 197.9 661.7 C 201.1 671.4 203.8 681 205.9 691.1 C 207.4 698 209.1 705 210.8 711.9 C 211.3 713.9 211.8 715.9 212.3 717.9 C 212.8 720 213.3 722 213.8 724 C 216 733.2 217.3 742.5 218.6 751.8 C 218.8 753.4 219.1 754.9 219.3 756.5 C 226.2 806.1 231.1 872 203 916 C 198.4 922 192.5 927.1 184.9 928.3 C 181.8 928.5 179.2 928.1 176.3 927.1 C 167.3 918.9 166.9 905.7 166.4 894.3 C 166.3 892.6 166.2 891 166.2 889.3 C 165.5 873.1 164.5 856.9 163.1 840.6 C 163 839.1 162.8 837.5 162.7 836 C 162.6 834.8 162.6 834.8 162.5 833.7 C 162.1 828.7 161.8 823.6 161.5 818.6 C 160.8 805.9 159.9 793.8 156.6 781.5 C 155.3 776.2 154.1 771 152.8 765.7 C 152.6 764.6 152.3 763.6 152 762.5 C 150.5 755.9 149.6 749.5 149.2 742.8 C 148.9 739.3 148 736.3 147 733 C 146.8 731.5 146.7 729.9 146.6 728.4 C 146.1 723 144.7 718.1 143.1 712.9 C 141.3 707.4 139.7 701.9 138.5 696.1 C 138 693.9 138 693.9 137 691.6 C 136 689 135.3 686.6 134.7 684 C 134.5 683 134.3 682.1 134.1 681.1 C 133.9 680.2 133.7 679.2 133.4 678.2 C 133.2 677.2 133 676.3 132.8 675.3 C 131.5 669.9 130.6 664.5 130 659 C 129.3 659 128.7 659 128 659 C 127.4 657.2 126.7 655.3 126.1 653.5 C 125.8 652.5 125.4 651.5 125.1 650.4 C 124.3 648 123.6 645.6 123 643.1 C 118.8 625.8 111.1 609.1 102.4 593.6 C 100 589.2 100 589.2 100 587 C 99.3 587 98.7 587 98 587 C 96.7 585 96.7 585 95.2 582.3 C 91.7 576.2 87.5 572.3 82 568 C 81.5 567.5 81.1 567 80.6 566.5 C 74.8 561 68.7 559.6 61 558 C 61 557.3 61 556.7 61 556 C 60 556 59 556 58 556 C 58 556.5 57.9 557.1 57.9 557.7 C 56.6 570.7 54.6 583.7 52.5 596.6 C 52.1 599.2 51.6 601.9 51.2 604.5 C 51 605.6 50.8 606.7 50.7 607.9 C 50.3 610.3 49.9 612.6 49.6 614.9 C 48.4 622.4 47.1 629.8 45.7 637.2 C 45.5 638.3 45.3 639.4 45 640.6 C 44.4 644.1 43.7 647.6 43 651.1 C 42.3 654.6 41.6 658.1 41 661.6 C 40.5 663.7 40.1 665.9 39.7 668 C 38.5 674.1 37.4 680.3 36.4 686.4 C 35.8 689.9 35 693.3 34.1 696.8 C 33.8 698.1 33.4 699.5 33.1 700.9 C 32.9 701.5 32.7 702.2 32.5 702.9 C 31.7 706.3 30.8 709.6 30 713 C 29.7 714.3 29.3 715.7 29 717 C 28.3 719.6 27.7 722.3 27 724.9 C 25.1 732.9 23 740.8 20.8 748.7 C 20.6 749.4 20.4 750.1 20.1 750.8 C 20 751.5 19.8 752.1 19.6 752.7 C 19.1 754.7 18.6 756.8 18.1 758.8 C 14.9 771.4 10.5 783.6 6 795.7 C 5.1 798.2 4.2 800.7 3.3 803.1 C -0.1 812.3 -3.7 821.2 -8 830 C -8.9 832 -9.9 834 -10.8 836 C -11.7 837.9 -12.6 839.8 -13.6 841.8 C -14 842.7 -14.5 843.7 -14.9 844.7 C -17.8 850.6 -20.8 856.3 -24 862 C -24.6 863.1 -25.2 864.2 -25.9 865.4 C -33.1 878.4 -41.5 890.5 -51 902 C -51.6 902.8 -52.3 903.6 -52.9 904.5 C -75 932.6 -103.1 951 -138 959 C -138.8 959.2 -139.6 959.4 -140.4 959.5 C -166.3 964.1 -193.3 958.1 -215.4 944.2 C -228.7 934.8 -238.5 923.4 -246.7 909.3 C -247.9 907.2 -249.2 905.3 -250.5 903.4 C -256.3 894.1 -259.1 882.9 -262.3 872.6 C -262.7 871.3 -262.7 871.3 -263.1 870.1 C -264.7 864.7 -265.5 859.6 -266 854 C -265 854.3 -262.212 857.403 -261.5 860.6 C -260.677 864.295 -260.354 864.209 -258.3 871.6 C -257.402 874.832 -244.42 899.195 -241 901 C -240.877 902.142 -222.321 916.35 -222 917 C -219.1 919 -207 925.3 -207 926 C -206.4 926.1 -205.9 926.2 -205.3 926.3 C -204.5 926.5 -203.7 926.6 -202.9 926.8 C -201.5 927.1 -201.5 927.1 -200.1 927.4 C -198 927.8 -196 928.3 -194.1 928.8 C -186.2 930.8 -178.9 931.3 -170.8 931.3 C -169.8 931.3 -168.8 931.3 -167.8 931.3 C -161.8 931.3 -156.3 930.7 -150.5 929.4 C -147.9 929 -135.7 925.3 -134.1 924.9 C -131 924 -128.7 922.7 -126 921 C -122.2 920.3 -119 918.7 -119 918 C -117.4 916.7 -117.4 916.7 -115.2 915.4 C -114.1 914.7 -114.1 914.7 -113 914 C -111 913 -108 911.7 -108 911 C -103.6 908 -97 903.7 -97 903 C -93.5 900 -86.9 897.2 -86 895.2 C -85.7 894.5 -78.6 888.1 -78.2 887.2 C -77 884.9 -75.8 883 -74 881 C -73 881 -67.3 873.5 -65 871 C -64.3 871 -60.7 867 -60 867 C -59.7 866.2 -55.7 860 -55 860 C -54.7 859.3 -54.5 858.5 -54.2 857.8 C -53 855.1 -51.9 853.1 -50 851 C -49.3 851 -46 844 -44 841 C -43.3 841 -39.8 833.8 -38.2 831.1 C -34 824.4 -30.3 817.6 -26.9 810.4 C -24.8 805.8 -22.6 801.3 -20 797 C -19.3 795.1 -18.5 793.2 -17.8 791.2 C -16.9 788.8 -16 786.4 -15 784 C -13.3 779.7 -11.6 775.4 -10 771 C -9.3 771 -4.9 757.5 -2.9 751.7 C -1.8 748.5 -0.9 745.3 0 742 C 0.6 740 1.2 738 1.8 736.1 C 2.2 734.9 2.5 733.8 2.9 732.6 C 3.6 730.3 4.3 728 5.1 725.7 C 11.3 706.7 16.2 686.9 19.7 667.2 C 20.5 662.8 21.7 659 23.3 654.9 C 24.3 652.2 24.7 649.6 25.1 646.8 C 25.5 643.9 25.8 641.4 26.9 638.8 C 28.2 635.5 28.8 632.2 29.4 628.8 C 30.9 620.1 33 611.5 35.2 603 C 35.6 601.5 36 599.9 36.4 598.4 C 38.8 589.4 39.117 579.515 44 571.6 C 48.701 563.981 47.312 539.47 41 538 C 29.1 534.4 16 537.5 4.2 539.8 C 3.2 540 3.2 540 2.2 540.2 C -5.4 541.7 -12.9 543.4 -20.3 545.4 C -24.1 546.3 -28 546.9 -31.8 547.5 C -35.2 548 -38.6 548.7 -41.9 549.4 C -56.8 552.4 -71.8 554.6 -87 555 C -88 555 -88.9 555.1 -89.9 555.1 C -114.1 555.7 -139 554.4 -162.8 549.5 C -165.5 548.9 -168.2 548.4 -171 547.8 C -174.2 547.2 -177.5 546.5 -180.8 545.8 C -194.2 543.2 -238.533 553.026 -240.383 547.916 C -247.75 539.635 -232.032 540.361 -227.732 540.061 C -217.432 539.961 -223.583 538.537 -182.427 540.816 C -179.127 542.016 -174.2 541.7 -170.7 542.2 C -169.6 542.4 -169.6 542.4 -168.6 542.5 C -166.3 542.9 -164 543.2 -161.7 543.5 C -160.9 543.6 -160.1 543.7 -159.3 543.8 C -125.4 548.5 -91.7 550.1 -57.7 545.8 C -56.9 545.6 -56.1 545.5 -55.2 545.4 C -40 543.5 -24.4 541.1 -9.9 535.9 C -7.1 535 0.1 532 1.2 531.5 C 8.5 528 15.2 524.6 21.4 519.2 C 23 518 23 518 25 518 C 25 517.3 25 516.7 25 516 C 25.9 515.9 25.9 515.9 26.9 515.8 C 27.6 515.5 28.3 515.3 29 515 C 29.7 513.4 30.4 511.7 31 510 C 32.3 508.3 33.6 506.6 35 505 C 37.2 502.3 38.4 500.4 39 497 C 39.7 497 40.3 497 41 497 C 41.1 496.1 41.1 495.2 41.2 494.2 C 41.7 490.7 42.9 487.7 44.4 484.4 C 54 461.9 53.5 436 53.3 412 C 53.3 408.7 53.3 405.4 53.3 402.1 C 53.3 382.3 52.4 362.7 51.3 342.9 C 51 336.4 50.6 329.9 50.3 323.4 C 50.2 320.9 50 318.5 49.9 316.1 C 49.8 314.8 49.8 313.6 49.7 312.4 C 49.4 306.1 49.1 299.8 48.7 293.5 C 48.7 292.3 48.6 291 48.5 289.7 C 48.4 287.2 48.3 284.6 48.1 282.1 C 47.8 275.6 47.5 269.1 47.1 262.6 C 46.7 254.2 46.2 245.7 45.8 237.3 C 45.7 235.2 45.6 233.1 45.5 230.9 C 45.2 226.1 45 221.3 44.7 216.5 C 44.7 215.6 44.6 214.8 44.6 213.9 C 44.5 212.4 44.4 210.8 44.3 209.2 C 43.8 200.5 43.7 191.8 43.4 183.1 C 43.4 180.9 43.3 178.7 43.3 176.6 C 43.3 175.3 43.2 174 43.2 172.7 C 43 169.4 42.7 166.2 42.2 163 C 41.9 160 41.7 157 41.6 154 C 41.5 152.6 41.4 151.3 41.4 150 C 41.3 149 41.3 149 41.2 147.9 C 40.6 136.9 39.8 126.1 38 115.2 C 36.7 106.5 36.3 97.8 36 89 C 35.3 89 34.7 89 34 89 C 33.9 88.1 33.7 87.2 33.6 86.3 C 32 77.7 30.2 69.1 28.1 60.5 C 27.8 59.5 27.6 58.5 27.3 57.4 C 25.8 51.4 23.9 46.5 21 41 C 20.6 38.9 20.6 38.9 20.3 36.9 C 18.8 28.9 12.9 19.6 7 14 C 6 12 5 10 4 8 C 3.3 6.9 2.6 5.9 1.8 4.8 C 0 2 0 2 0 0 Z" fill="#E5D5BA" transform="translate(719,63)"></path>
  <path d="M 0 0 C 1.3 0.4 1.3 0.4 2.6 0.8 C 11.6 4 22.8 9.8 29.5 16.5 C 31.5 18.4 33.7 19.5 36.1 20.7 C 38.7 22.5 40.8 24.7 43 27 C 44.7 28.4 46.3 29.8 48 31.2 C 66.2 47.8 80.1 71.7 87.9 94.8 C 88.8 97.5 89.9 100.1 91 102.8 C 93.7 109.5 95.5 116.5 97.4 123.6 C 97.8 125.1 98.2 126.7 98.6 128.3 C 101.8 139.8 103.8 151.4 105.4 163.1 C 105.6 163.9 105.7 164.7 105.8 165.4 C 108 181.3 109.7 197.1 111.2 213 C 111.5 216 111.7 219 112 222.1 C 113.7 239.8 115.3 257.5 116.9 275.2 C 116.9 276.1 117 277 117.1 277.9 C 117.8 286.5 118.6 295 119.3 303.6 C 121.1 324.6 123.2 345.4 125.6 366.3 C 126.1 370.9 126.6 375.5 127.1 380.2 C 127.3 381.5 127.4 382.8 127.6 384.2 C 127.8 386.2 128 388.2 128.2 390.2 C 129.2 399.2 130.2 408.2 131.3 417.1 C 132.1 424.4 133 431.7 133.8 438.9 C 134 441 134.2 443 134.5 445 C 136.3 461.1 137.3 477 137.2 493.2 C 137.2 494 137.2 494.8 137.2 495.6 C 137.2 497.9 137.2 500.2 137.2 502.5 C 137.2 503.2 137.2 503.9 137.2 504.6 C 137.1 508.2 136.8 511.5 136 515 C 136.8 514.9 137.7 514.8 138.5 514.8 C 148.9 515.5 157.8 524.4 164.6 531.8 C 166.8 534.5 168.9 537.2 171 540 C 171.6 540.7 172.1 541.5 172.7 542.2 C 174.2 544.1 175.6 546.1 177 548 C 177.5 548.6 178 549.2 178.4 549.9 C 180.9 553.2 182.6 555.8 183 560 C 183.7 560 184.3 560 185 560 C 191.2 571.2 197.3 582.4 203.1 593.8 C 203.5 594.7 204 595.6 204.4 596.5 C 211 609.6 211 609.6 211 616 C 211.7 616 212.3 616 213 616 C 213.3 616.8 213.7 617.6 214 618.4 C 216.8 625.1 216.8 625.1 219.7 631.9 C 221 635 221 635 221.9 637.6 C 223.3 641.8 224.9 645.9 226.5 650 C 228.5 655 230.4 659.9 232 665 C 232.4 666.3 232.9 667.6 233.3 668.9 C 236.1 677 238.7 685.1 240.9 693.4 C 241.1 694.2 241.3 695 241.5 695.8 C 241.7 696.6 241.9 697.3 242.1 698.1 C 242.3 698.7 242.5 699.4 242.6 700.1 C 243 702 243 702 243 706 C 243.7 706 244.3 706 245 706 C 247.6 716.2 250 726.4 252.2 736.7 C 253.3 741.8 254.4 746.9 255.6 751.9 C 257.3 759.3 258.7 766.6 260 774 C 260.2 775 260.3 775.9 260.5 776.9 C 263.4 793.9 264.8 810.6 265 827.8 C 265 830.2 265 832.5 265.1 834.8 C 265.5 873.6 265.5 873.6 263 892 C 262.8 893.2 262.8 893.2 262.7 894.4 C 260.7 909.3 256.3 923 251 937 C 250.3 937 249.7 937 249 937 C 248.8 937.8 248.6 938.6 248.4 939.4 C 244.7 948.6 237.1 956 228.7 960.9 C 222 962.9 215.7 963.3 209.4 960.1 C 199.6 953.8 192.5 945.5 186 936 C 185.5 935.3 185 934.5 184.5 933.8 C 176.8 921.8 171.1 908.2 166 895 C 165.3 893.3 164.7 891.7 164 890 C 164 890.7 163.9 891.4 163.9 892.1 C 163.4 899.3 162.3 906.4 160.9 913.5 C 160.2 916.7 159.7 919.9 159.2 923.1 C 157.1 935.7 153.9 947.6 149.8 959.7 C 148.8 962.7 147.8 965.7 146.8 968.8 C 143.8 977.8 140 986.4 136 995 C 135.7 995.7 135.3 996.5 135 997.2 C 133.8 999.7 132.7 1002.2 131.5 1004.7 C 131.1 1005.5 130.8 1006.3 130.4 1007.1 C 127.9 1012.3 125.2 1017.2 122 1022 C 121.6 1022.6 121.2 1023.2 120.8 1023.8 C 111.5 1038.3 101.2 1051.8 89 1064 C 89.3 1066.7 89.8 1069.3 90.5 1071.9 C 91.9 1076.8 92.2 1081 92 1086 C 92.9 1086.3 93.7 1086.5 94.6 1086.8 C 97.9 1088 100.9 1089.4 104 1091 C 104 1091.7 104 1092.3 104 1093 C 105.3 1093.4 105.3 1093.4 106.6 1093.8 C 110.2 1095.1 113 1096.7 116 1099 C 116 1099.7 116 1100.3 116 1101 C 116.7 1101.2 117.4 1101.4 118.1 1101.7 C 121.7 1103.3 124.4 1105.6 127.3 1108.1 C 127.9 1108.6 128.5 1109.1 129 1109.6 C 139.8 1119 151.6 1129.9 153.3 1144.9 C 153.5 1150.3 153.2 1154.5 150 1159 C 142.5 1166.1 135.5 1166.4 125.7 1166.4 C 120 1166.6 116.4 1167 112 1171 C 110.3 1173.6 110.3 1173.6 109 1176.4 C 105.4 1183.5 101.3 1186.8 94 1190 C 83.3 1191.6 74.5 1188.7 65 1184 C 60 1181.6 55.5 1180.9 50 1182 C 45.1 1184 40.6 1186.5 36 1189 C 29.7 1192.4 24.8 1192.9 17.8 1191.6 C 12.2 1189.9 9.4 1186.6 6 1182 C 5.4 1181.4 4.9 1180.7 4.3 1180.1 C -2.8 1168.8 -1.1 1154.7 -1 1142 C -0.3 1142 0.3 1142 1 1142 C 0.9 1140.9 0.8 1139.9 0.8 1138.8 C 0.8 1130 4.9 1121.6 9 1114 C 3.5 1115.4 -1.8 1116.9 -7.1 1118.9 C -13.9 1121.4 -20.7 1123.1 -27.7 1124.5 C -29.2 1124.8 -30.6 1125.1 -32.1 1125.5 C -57.2 1131 -86.4 1130 -111.4 1124.5 C -115.3 1123.7 -119.3 1123.1 -123.2 1122.5 C -134.5 1120.4 -145.4 1115.2 -156 1111 C -155.7 1111.7 -155.3 1112.3 -155 1113 C -147 1129.8 -143.3 1152.1 -148.8 1170.3 C -149.5 1172.2 -150.2 1174.1 -151 1176 C -151.3 1176.8 -151.6 1177.6 -152 1178.4 C -154.9 1184.6 -158.2 1189.5 -164.7 1192.4 C -171 1194.6 -176.5 1195.5 -182.8 1192.8 C -186.4 1190.9 -189.9 1188.7 -193.3 1186.5 C -198.9 1183 -203.4 1181.9 -210 1183 C -212.6 1183.9 -215.2 1185 -217.7 1186.1 C -220.6 1187.2 -223 1187.3 -226 1187 C -226 1187.7 -226 1188.3 -226 1189 C -228 1189.1 -230.1 1189.1 -232.1 1189.1 C -233.3 1189.1 -234.4 1189.2 -235.6 1189.2 C -241 1188.9 -245.3 1187.4 -249.4 1183.8 C -252.3 1180.5 -254.2 1176.6 -256.3 1172.7 C -258.5 1169.2 -258.5 1169.2 -262 1167 C -265.2 1166.6 -268.5 1166.5 -271.8 1166.5 C -279.2 1166.4 -286.1 1166.3 -292.1 1161.3 C -292.5 1160.7 -293 1160.1 -293.4 1159.5 C -293.9 1158.9 -294.4 1158.3 -294.9 1157.7 C -298.3 1152.5 -297.6 1145.9 -297 1140 C -290.8 1117.7 -263 1100.5 -244.2 1089.8 C -243.2 1089.2 -243.2 1089.2 -242.2 1088.6 C -238.8 1086.7 -237 1086 -233 1086 C -233 1085.4 -233.1 1084.8 -233.1 1084.1 C -233.3 1078.5 -232.7 1074.3 -230.6 1069.1 C -229.8 1066.3 -230.1 1064.7 -231 1062 C -232.6 1060 -232.6 1060 -234.6 1058.2 C -241 1052.2 -245.9 1045.2 -250.9 1038.1 C -251.5 1037.2 -251.5 1037.2 -252.2 1036.3 C -255 1032.2 -255 1032.2 -255 1030 C -255.7 1030 -256.3 1030 -257 1030 C -261.6 1021.8 -265.8 1013.4 -270 1005 C -271 1002.9 -272.1 1000.9 -273.1 998.9 C -273.6 997.9 -273.6 997.9 -274.1 996.8 C -274.9 995.3 -275.6 993.8 -276.4 992.2 C -290.1 964.3 -298.3 930.9 -301 900 C -301.6 901.7 -301.6 901.7 -302.2 903.5 C -304 908.2 -306.5 912.2 -309.2 916.4 C -309.7 917.2 -310.2 917.9 -310.7 918.7 C -318.6 930.5 -318.6 930.5 -322 934 C -322.7 934 -323.3 934 -324 934 C -324 934.9 -323.9 935.7 -323.9 936.6 C -324.2 945.4 -328.1 954.5 -334 961 C -340.3 966.1 -345.8 968.8 -354 968 C -361.4 966.1 -366.5 962.3 -371 956 C -371 955.3 -371 954.7 -371 954 C -371.7 954 -372.3 954 -373 954 C -377.6 943.1 -381.8 932.6 -384 921 C -384.3 919.7 -384.6 918.4 -384.9 917.1 C -387.7 905.1 -389.3 893 -390.7 880.8 C -390.8 880.1 -390.9 879.4 -390.9 878.7 C -391.2 876.8 -391.4 875 -391.6 873.1 C -391.9 870.2 -391.9 870.2 -392.5 868.1 C -393 865.9 -393.1 864.1 -393.1 861.9 C -393.1 861.1 -393.1 860.3 -393.1 859.5 C -393.1 858.6 -393.1 857.7 -393.1 856.8 C -393.1 855.9 -393.1 855 -393.1 854.1 C -393.1 851.1 -393.1 848.2 -393.1 845.2 C -393.1 843.8 -393.1 843.8 -393.1 842.2 C -393.1 816.7 -392.3 792 -387 767 C -386.3 763.4 -385.7 759.9 -385.1 756.3 C -383.9 749.2 -382.1 742.2 -380.2 735.2 C -380 734.3 -380 734.3 -379.7 733.3 C -377.3 724.4 -374.7 715.8 -371.3 707.3 C -370 704 -368.9 700.6 -367.9 697.1 C -365.7 689.7 -362.8 682.7 -359.6 675.7 C -357.7 671.6 -356 667.5 -354.4 663.3 C -352.9 659.2 -351.2 655.2 -349.1 651.2 C -347.6 648.2 -346.2 645.2 -344.8 642.1 C -340.7 633.3 -336.4 624.7 -332 616 C -331.3 616 -330.7 616 -330 616 C -329.9 615.3 -329.8 614.6 -329.7 613.8 C -329 610.8 -327.9 608.5 -326.5 605.8 C -325.7 604.3 -325.7 604.3 -324.9 602.8 C -324.4 601.8 -323.9 600.8 -323.3 599.8 C -322.8 598.8 -322.3 597.8 -321.7 596.7 C -318.9 591.3 -315.9 586.1 -312.4 581.1 C -310.7 578.5 -309.1 576 -307.5 573.4 C -299.4 560.1 -290.7 547.4 -280 536 C -278.8 534.6 -277.7 533.3 -276.5 531.9 C -269.8 524.2 -262.4 518.1 -253 514 C -252 514 -251 514 -250 514 C -250.2 512.8 -250.3 511.5 -250.5 510.2 C -255.5 464.3 -245.2 415.6 -239.2 370.2 C -238.1 362.1 -237.1 354.1 -236.1 346 C -235.2 338.9 -234.3 331.7 -233.4 324.6 C -230 298.4 -226.8 272.1 -224 245.9 C -222.8 234.4 -221.5 222.9 -220.1 211.4 C -219.3 205.7 -218.6 199.9 -218 194.2 C -211.5 131.9 -211.5 131.9 -199.9 104.3 C -199 101.9 -198.2 99.4 -197.5 96.9 C -196.4 93 -194.9 89.6 -193 86 C -191.9 83.8 -191.1 81.6 -190.2 79.3 C -181.8 58 -166.5 35.8 -148 22 C -147.3 22 -146.7 22 -146 22 C -146 21.3 -146 20.7 -146 20 C -144.1 18.6 -144.1 18.6 -141.3 16.9 C -140.3 16.3 -139.3 15.6 -138.3 15 C -137.2 14.3 -136.1 13.7 -135 13 C -133.9 12.3 -132.9 11.6 -131.8 10.9 C -114.8 0.2 -96.8 -5.9 -77 -9 C -75.6 -9.3 -75.6 -9.3 -74.1 -9.5 C -49.1 -13.3 -23.6 -7.9 0 0 Z M -103 3 C -104.1 3.4 -105.2 3.8 -106.3 4.2 C -119.3 8.8 -131.2 15.4 -142 24 C -143 24.8 -144 25.6 -145.1 26.4 C -151 31.2 -156.3 36.1 -161 42 C -162.2 43.5 -162.2 43.5 -163.4 44.9 C -177.8 63 -188.4 83.8 -195 106 C -195.5 107.5 -196 109.1 -196.6 110.6 C -197 112.1 -197.5 113.5 -198 115 C -198.3 116 -198.6 116.9 -199 117.9 C -204 133.6 -206.4 149.8 -209 166 C -209.1 166.7 -209.2 167.4 -209.3 168.1 C -211.5 182.1 -213.3 196.2 -214.9 210.2 C -215.1 212.5 -215.4 214.8 -215.7 217.1 C -217.7 234.6 -219.5 252.1 -221.3 269.6 C -222.4 280.8 -223.7 291.9 -225.3 303 C -226.2 309.1 -226.8 315.2 -227.5 321.3 C -228.9 334.6 -230.8 347.9 -232.6 361.2 C -233 364.1 -233.4 367 -233.8 369.9 C -234 371.8 -234.3 373.7 -234.6 375.6 C -234.7 376.5 -234.8 377.4 -234.9 378.3 C -235.6 383.5 -236.4 388.6 -237.1 393.8 C -237.9 399.1 -238.5 404.5 -238.9 409.9 C -239.6 418.5 -240.6 427.2 -241.7 435.8 C -245.6 465.5 -247.3 494.2 -244 524 C -244.7 524 -245.3 524 -246 524 C -246.3 522.7 -246.7 521.4 -247 520 C -252.8 519.5 -255.4 520.5 -260 524 C -261.1 524.7 -262.2 525.4 -263.4 526.1 C -264.7 527.1 -264.7 527.1 -266 528 C -266 528.7 -266 529.3 -266 530 C -266.8 530.3 -266.8 530.3 -267.6 530.6 C -270.9 532.5 -273.2 535 -275.6 537.8 C -276.2 538.3 -276.7 538.9 -277.2 539.5 C -282.7 545.6 -287.4 552.2 -292 559 C -292.4 559.6 -292.9 560.3 -293.3 560.9 C -298.4 568.5 -303.4 576.1 -308 584 C -308.7 585.2 -309.4 586.4 -310.2 587.6 C -317.3 599.4 -323.7 611.7 -330 624 C -330.4 624.8 -330.8 625.5 -331.2 626.3 C -341.7 647 -351.6 667.9 -359.4 689.7 C -360.6 693 -361.9 696.3 -363.2 699.6 C -364.9 703.5 -366.1 707.5 -367.3 711.6 C -368 713.8 -368.7 716.1 -369.4 718.3 C -370 719.9 -370.5 721.4 -371 723 C -371.3 723.9 -371.6 724.7 -371.9 725.6 C -382.9 760.1 -388.6 795.8 -388.3 832 C -388.3 835.5 -388.3 838.9 -388.3 842.4 C -388.3 855.4 -387.7 868.1 -386 881 C -385.9 881.7 -385.8 882.4 -385.7 883.2 C -385.2 887.3 -384.6 891.5 -383.9 895.7 C -383.6 897.7 -383.3 899.7 -383 901.8 C -380.1 921.6 -375.8 943.8 -362 959 C -356.8 962.7 -351.2 962.8 -345 962 C -339.6 960.4 -336.9 957.1 -334.1 952.4 C -330.8 945.5 -329.1 938.7 -327.9 931.2 C -327.7 930.2 -327.5 929.1 -327.4 928.1 C -325.8 917.8 -325.4 907.7 -325.2 897.3 C -324.8 881 -324.8 881 -323.5 876.2 C -322.9 873.6 -322.8 871.1 -322.6 868.5 C -322.6 867.4 -322.5 866.3 -322.5 865.1 C -322.4 863.9 -322.4 862.8 -322.3 861.5 C -322.2 859 -322.1 856.5 -321.9 853.9 C -321.8 849.9 -321.6 846 -321.4 842 C -321.2 838.1 -321 834.3 -320.8 830.4 C -320.8 829.2 -320.7 828 -320.7 826.8 C -320.3 819.7 -319.4 813 -318 806 C -317.6 803.7 -317.2 801.3 -316.8 799 C -316.6 797.7 -316.4 796.5 -316.2 795.3 C -315.8 792.8 -315.4 790.2 -314.9 787.7 C -313.8 781.2 -312.6 774.9 -310.7 768.6 C -310 766 -309.4 763.4 -308.8 760.8 C -308.6 760 -308.4 759.2 -308.2 758.3 C -307.8 756.6 -307.4 755 -307 753.3 C -305.8 748.4 -304.2 744.2 -301.9 739.8 C -300.7 737.4 -300.3 735.1 -300.1 732.5 C -298.6 722.3 -295.1 712.5 -291.2 703 C -289.1 697.8 -287.4 692.6 -285.6 687.3 C -284.1 682.7 -282.3 678.4 -280 674 C -278.9 671.9 -278 669.6 -277.2 667.4 C -274.6 660.8 -271.5 654.6 -268.4 648.3 C -268.1 647.7 -267.8 647.1 -267.4 646.4 C -262.6 636.8 -257.4 627.7 -251 619 C -250.5 618.3 -250 617.5 -249.4 616.8 C -241.5 605.5 -230.2 591.9 -216 589 C -212.6 588.8 -209.4 588.8 -206 589 C -206.5 593 -207.5 596.2 -209.1 599.8 C -213 609.6 -215.1 620.4 -217.4 630.8 C -217.5 631.4 -217.7 632.1 -217.8 632.8 C -223.6 659.6 -229.3 687.2 -230.8 714.6 C -231 717 -231 717 -232 720 C -235.7 746.4 -236.4 773.1 -236.4 799.7 C -236.4 802 -236.4 804.2 -236.5 806.4 C -236.6 842.3 -233.6 877.8 -222 912 C -221.8 912.7 -221.5 913.5 -221.2 914.2 C -218.3 922.7 -215 930.5 -210 938 C -209.5 938.9 -209 939.7 -208.5 940.6 C -194.1 964.4 -173.2 979.5 -146.6 987 C -114.9 994.3 -83.2 986.9 -55.9 970.1 C -39.1 959.2 -23.9 945.1 -12 929 C -11.1 927.8 -10.2 926.7 -9.4 925.5 C -1.1 914.4 6.6 903.2 13 891 C 13.8 889.5 14.6 888.1 15.3 886.6 C 25.4 867.8 34 848.6 41.6 828.6 C 41.8 828 42 827.4 42.3 826.7 C 45.5 818.3 48.5 809.9 51 801.3 C 51.7 798.8 52.5 796.6 53.5 794.2 C 55.3 789.5 56.4 784.5 57.5 779.6 C 58.6 774.5 59.8 769.5 61.5 764.6 C 63.4 759 64.6 753.2 65.9 747.4 C 69.1 733.3 69.1 733.3 70.6 727.5 C 72 722 73.3 716.6 74.3 711 C 74.6 709.6 74.9 708.2 75.1 706.8 C 75.3 706 75.4 705.2 75.5 704.5 C 76.2 700.9 76.9 697.3 77.6 693.7 C 78.3 689.7 79.1 685.6 79.9 681.6 C 80.2 679.5 80.6 677.5 81 675.4 C 83.7 661.2 86.2 646.9 88.6 632.5 C 89.1 629.3 89.7 626.1 90.2 623 C 93.8 604.1 93.8 604.1 95 585 C 96 585 97 585 98 585 C 98 585.7 98 586.3 98 587 C 98.8 587.2 99.5 587.3 100.3 587.5 C 112.6 590.2 119.2 595.2 127 605 C 127.8 605.8 128.7 606.6 129.6 607.4 C 132.1 610.1 133.5 612.6 135 616 C 135.7 616 136.3 616 137 616 C 137.3 616.8 137.5 617.7 137.8 618.5 C 139.1 622.4 140.9 625.9 142.8 629.6 C 143.5 631 144.2 632.4 144.9 633.9 C 145.3 634.6 145.6 635.3 146 636 C 154.4 652.7 159.8 670.1 165 688 C 165.7 688 166.3 688 167 688 C 167.1 688.8 167.2 689.6 167.3 690.4 C 168.2 697.7 169.6 704.5 171.6 711.6 C 173.8 719.3 174.6 726 174 734 C 170 722.1 166.9 710.1 164 698 C 163.7 698 163.3 698 163 698 C 162.9 704.2 163.1 710.2 163.7 716.3 C 164.9 728.6 165.2 740.8 165.2 753.1 C 165.2 753.9 165.2 754.6 165.2 755.4 C 165.2 768.8 165.2 768.8 164 770 C 162.7 757.6 161.6 745.2 160.8 732.8 C 159.8 718.3 158.8 703.9 157.4 689.4 C 157.3 687.8 157.1 686.2 157 684.6 C 156 672.9 153.4 662.8 149 652 C 148.6 651 148.2 650 147.8 648.9 C 146.7 646.3 145.6 643.7 144.4 641.1 C 144 640.2 143.5 639.3 143.1 638.4 C 135.2 621.4 124.2 601.2 106.1 593.7 C 103.6 592.9 101.6 592.7 99 593 C 97.6 597.6 96.6 601.9 96 606.7 C 95.9 607.9 95.7 609.2 95.6 610.5 C 95.4 611.8 95.2 613.1 95.1 614.4 C 93.9 623.9 92.5 633.3 90.7 642.7 C 89.8 647.1 89.1 651.5 88.5 655.9 C 88 659 87.3 661.9 86.5 664.9 C 85.6 668.5 85.1 672.3 84.6 676 C 82.7 688 80.6 699.9 77.7 711.7 C 77 715.2 76.3 718.8 75.7 722.3 C 73.9 732.1 71.4 741.7 68.9 751.3 C 68.1 754.7 67.2 758.2 66.3 761.6 C 65.5 764.7 64.8 767.9 64 771 C 63.6 772.5 63.2 774 62.8 775.6 C 60.8 783.4 58.7 791.2 55.9 798.8 C 54.8 801.5 54 804.3 53.1 807.1 C 51.5 812.5 49.8 817.9 48 823.3 C 47.8 824.1 47.5 824.8 47.3 825.6 C 45.8 830 44.1 834 41.9 838.1 C 40.5 840.9 39.6 843.9 38.6 846.9 C 36.8 851.9 34.8 856.6 32.4 861.4 C 30.8 864.4 29.4 867.6 27.9 870.8 C 20.1 887.7 10.8 903.7 0 919 C -0.8 920.2 -0.8 920.2 -1.7 921.4 C -10.3 933.7 -19.6 946.3 -31.4 955.8 C -32.3 956.5 -33.1 957.2 -34 958 C -34 958.7 -34 959.3 -34 960 C -34.6 960.2 -35.1 960.5 -35.7 960.8 C -39.3 962.7 -42.3 965.5 -45.5 968.1 C -47.9 970 -50.2 970.9 -53 972 C -53.5 972.5 -53.9 972.9 -54.4 973.4 C -61.1 980.1 -70.9 983.1 -79.6 986.2 C -80.7 986.7 -81.9 987.1 -83.1 987.6 C -94.3 991.7 -104 993.4 -115.9 993.3 C -118 993.3 -120.2 993.3 -122.3 993.4 C -148.9 993.5 -174.5 984.2 -193.8 965.5 C -225.6 933.8 -234.8 889.2 -239 846 C -239.1 845 -239.2 844 -239.3 842.9 C -240.4 830 -240.2 817.1 -240.2 804.1 C -240.2 802.8 -240.2 801.5 -240.2 800.2 C -240.1 769.8 -238.1 740.1 -234.5 710 C -234.1 706.6 -233.7 703.2 -233.3 699.8 C -231.9 687.1 -229.8 674.7 -227.6 662.2 C -227.3 661 -227.3 661 -227.1 659.7 C -221.4 628.2 -221.4 628.2 -217.5 614.5 C -217.3 613.8 -217.1 613 -216.9 612.3 C -215.4 607.1 -213.7 602 -211.7 597 C -210.9 595 -210.9 595 -211 593 C -223.1 593.8 -231.8 602.2 -239.6 610.9 C -243.1 615.1 -246.82 617.973 -248.62 623.273 C -249.32 623.273 -249.3 624 -250 624 C -250.4 624.8 -250.4 624.8 -250.9 625.6 C -253.1 629.7 -255.4 633.6 -257.8 637.6 C -261.6 643.9 -264.9 650.5 -268.1 657.1 C -268.9 658.7 -269.7 660.3 -270.4 661.9 C -276.9 675.4 -279.8 689.1 -282 703.8 C -282.7 708.4 -283.6 713.1 -284.5 717.7 C -286 725.9 -287.3 734 -288.4 742.2 C -288.5 743 -288.6 743.7 -288.7 744.5 C -290.6 758.1 -292.2 771.7 -293.8 785.2 C -293.9 786.2 -294 787.1 -294.1 788 C -296.4 808.4 -297.2 828.6 -297.2 849.1 C -297.2 851.9 -297.3 854.7 -297.3 857.5 C -297.5 881.5 -296.4 905.5 -291 929 C -290.8 929.9 -290.6 930.7 -290.4 931.6 C -286.9 947.1 -282.3 962.1 -277 977 C -276.7 977.7 -276.5 978.4 -276.2 979.1 C -273.9 985.5 -271.4 991.6 -268.2 997.6 C -267.3 999.5 -266.4 1001.4 -265.6 1003.4 C -256.9 1023.4 -242.8 1043.9 -227 1059 C -226.3 1059 -225.7 1059 -225 1059 C -224.1 1057.8 -223.2 1056.5 -222.4 1055.2 C -219.1 1050.9 -216.3 1048.4 -211 1047 C -199.7 1045.7 -191.2 1047.7 -182.2 1054.4 C -175 1060.4 -168.3 1068.4 -167 1078 C -166.9 1080.1 -166.9 1082.3 -166.9 1084.4 C -166.9 1093.2 -166.9 1093.2 -163.1 1100.8 C -137 1124.1 -83.5 1124.7 -51.2 1122.8 C -41.6 1122.1 -32.3 1120.5 -23 1118 C -21.8 1117.7 -21.8 1117.7 -20.7 1117.4 C -14.4 1115.7 -8.2 1113.9 -2 1112 C -1.2 1111.8 -0.4 1111.5 0.4 1111.3 C 9.7 1108.5 15.8 1105.7 21 1097 C 21.7 1096.3 22.3 1095.7 23 1095 C 23.4 1092.7 23.6 1090.3 23.9 1088 C 25.5 1074.3 30.9 1065.3 41.2 1056.3 C 43 1055 43 1055 46 1054 C 45.6 1054.5 45.1 1055 44.7 1055.5 C 33.2 1068.4 27.8 1078.8 27.9 1096.4 C 27.9 1097.3 27.9 1098.2 28 1099.2 C 28 1101.5 28 1103.7 28 1106 C 27.3 1106 26.7 1106 26 1106 C 26 1103.4 26 1100.7 26 1098 C 20.6 1101.5 18 1106.5 15 1112 C 14.6 1112.6 14.3 1113.3 13.9 1113.9 C 4.7 1131.2 0.4 1152.3 6 1171.4 C 8.4 1177.6 11.5 1182.6 17.1 1186.2 C 22.4 1188.5 27 1187.2 32.1 1185.2 C 36.1 1183.5 39.5 1181.4 43 1179 C 52.1 1175.5 60.4 1175.9 69.3 1179.9 C 70.5 1180.4 71.6 1181 72.8 1181.5 C 80.3 1185 87.7 1186.3 95.7 1183.9 C 101.2 1180.8 103.6 1176.8 106.5 1171.4 C 108.9 1167 111.5 1164.3 116 1162 C 117.4 1161.9 118.9 1161.8 120.3 1161.8 C 121.1 1161.8 122 1161.7 122.9 1161.7 C 124.7 1161.7 126.5 1161.6 128.3 1161.6 C 135.1 1161.3 141 1160.4 146.5 1156 C 149.3 1150.4 149 1145 147 1139 C 143.2 1130.7 137.5 1124.4 131 1118 C 130.2 1117.2 129.4 1116.4 128.6 1115.6 C 121.4 1108.8 113.2 1103.4 105 1098 C 104.4 1097.6 103.8 1097.2 103.3 1096.8 C 97.6 1092.6 97.6 1092.6 91 1091 C 89.5 1096 89.5 1096 88 1101 C 88 1099.7 87.9 1098.4 87.9 1097 C 87.2 1073.6 87.2 1073.6 76.7 1053.3 C 72.8 1050.2 69 1049.8 64.2 1049.9 C 62.7 1049.9 62.7 1049.9 61.2 1049.9 C 60.5 1050 59.8 1050 59 1050 C 61.3 1047.3 61.8 1047 65.6 1046.6 C 72 1046.8 78 1049 82.6 1053.6 C 84 1056 84 1056 85 1059 C 87.9 1057.7 90 1056.4 92 1054 C 92 1053.3 92 1052.7 92 1052 C 92.7 1052 93.3 1052 94 1052 C 95.8 1049.9 97.5 1047.8 99.2 1045.6 C 99.7 1045 100.2 1044.3 100.7 1043.7 C 117.1 1022.4 129.6 998.9 139.3 973.8 C 139.9 972.2 140.6 970.5 141.2 968.9 C 145.6 957.6 148.3 945.8 151.2 934.1 C 151.9 931.6 152.5 929.1 153.2 926.6 C 165.3 880.2 163.1 829.5 164 782 C 164.7 782 165.3 782 166 782 C 166 791.5 166 800.9 166.1 810.4 C 166.1 814.7 166.1 819.1 166.1 823.5 C 166.1 827.8 166.1 832 166.1 836.3 C 166.1 837.9 166.1 839.5 166.1 841.1 C 166.1 850.6 165.9 860.1 165.2 869.6 C 164.8 876.4 166 881.9 168.5 888.2 C 168.9 889.3 169.2 890.3 169.6 891.3 C 172.6 899.4 176.1 907.3 180 915 C 180.3 915.7 180.7 916.4 181 917.2 C 185.4 926.6 191.8 937.4 199 945 C 199.7 945 200.3 945 201 945 C 200.9 942.7 200.7 940.4 200.6 938.1 C 200.5 936.8 200.4 935.5 200.3 934.2 C 200.1 931.4 199.8 928.7 199.5 926 C 198.8 919.8 198.8 913.7 198.7 907.5 C 198.4 893.7 197.7 879.9 196.6 866.1 C 196.5 865.4 196.4 864.6 196.4 863.8 C 195.7 855.4 194.8 847.1 193.4 838.8 C 192.8 835 192.6 831.1 192.4 827.2 C 192.3 826.1 192.3 826.1 192.3 825.1 C 192.2 823.4 192.1 821.7 192 820 C 192.7 820 193.3 820 194 820 C 194 821.1 194 822.2 193.9 823.3 C 193.8 826.9 193.8 826.9 195 830 C 195.7 830 196.3 830 197 830 C 197 830.9 197.1 831.8 197.1 832.8 C 197.6 840.3 198.1 847.8 198.9 855.2 C 200.6 871.6 201.8 887.9 202.5 904.3 C 202.5 905.6 202.5 905.6 202.6 907 C 202.8 911.3 203 915.7 203.1 920.1 C 203.6 932.1 204.2 945.2 212 955 C 215.8 957.4 219.6 957.7 224 957 C 234.2 953.1 240.4 945.4 245.2 935.9 C 245.6 935.2 246 934.4 246.4 933.6 C 252.3 922.3 254.6 909.9 256.7 897.4 C 257 895.6 257 895.6 257.3 893.8 C 259.8 879.4 260.2 865.2 260.1 850.7 C 260.1 849.8 260.1 848.9 260.1 848 C 260.1 825.8 259.2 804 256 782 C 255.9 781 255.7 780.1 255.6 779.1 C 252.6 758.7 247.8 738.8 242.7 718.9 C 242.2 717 241.8 715 241.3 713.1 C 239.4 705.3 237.1 697.6 234.8 689.9 C 234.6 689.3 234.4 688.7 234.2 688 C 231.2 678.5 228 669.1 224.4 659.8 C 223.3 656.8 222.3 653.7 221.4 650.6 C 219.7 644.8 217.3 639.5 215 634 C 214 631.7 213 629.3 212 627 C 211.3 625.3 210.6 623.7 209.9 622 C 208.1 617.6 206.3 613.2 204.5 608.8 C 194 583.8 180.1 559.1 163 538 C 162.2 537 161.4 536 160.6 534.9 C 158 532 155.5 529.7 152.5 527.3 C 151.6 526.6 150.7 525.8 149.7 525.1 C 144 520.7 141.1 519.6 134 520 C 133.3 522.3 132.7 524.6 132 527 C 131.8 525.7 131.6 524.3 131.4 523 C 131.3 522.3 131.2 521.5 131.1 520.8 C 131 517.9 131.4 515.4 131.7 512.6 C 132.4 506.5 132.3 500.4 132.3 494.2 C 132.3 493.5 132.3 492.7 132.3 491.9 C 132.4 466.6 129.5 441.3 126.3 416.2 C 122 382.8 118.6 349.3 115.5 315.8 C 114.8 308.1 114.1 300.4 113.4 292.7 C 113.1 290.2 112.9 287.7 112.7 285.2 C 112.2 280.4 111.8 275.7 111.3 270.9 C 111.1 268.5 110.9 266 110.6 263.5 C 110.4 261.6 110.4 261.6 110.3 259.7 C 109.4 250.5 108.6 241.3 107.8 232 C 107.5 229.5 107.3 227 107.1 224.5 C 106.7 219.5 106.2 214.5 105.8 209.5 C 104.8 198.3 103.8 187.1 102 176 C 101.6 173.5 101.3 170.9 100.9 168.4 C 98.6 153.1 96.1 137.9 92 123 C 91.8 122.2 91.5 121.3 91.3 120.4 C 82.6 89.1 68.6 60.7 46 37 C 45.4 36.3 44.7 35.6 44.1 34.9 C 18.8 8 -17.7 -3.5 -53.6 -5.2 C -70.7 -5.5 -87 -2.8 -103 3 Z" fill="#5A360D" transform="translate(682,34)"></path>
  <path d="M 0 0 C 0.5 1 1 2.1 1.5 3.1 C 5.6 11.7 9.9 19.6 16 27 C 17 28.3 17 28.3 18 29.5 C 22.7 35.1 27.8 39.4 33.8 43.4 C 36.6 45.4 37.9 46.5 38.7 49.9 C 37.8 53.9 36.1 56.4 33 59 C 30.5 60.3 27.9 61.1 25.2 61.9 C 17.8 64.5 11.1 67.6 6.5 74.2 C 6 74.8 5.5 75.4 5 76 C 4 76 2 77.3 2 78 C 0.6 79.6 0.6 79.6 -1 81 C -1.7 81 -3.5 82.1 -3.8 82.7 C -5.1 85.2 -6.5 87.4 -8 89.8 C -8.5 90.5 -9 91.3 -9.6 92.2 C -10 92.8 -10.5 93.4 -11 94 C -11.7 94 -12.3 94 -13 94 C -13.2 94.7 -13.5 95.4 -13.8 96.1 C -15.2 99.6 -17.1 102.7 -19 106 C -19.7 106 -20.3 106 -21 106 C -21.2 106.8 -21.4 107.5 -21.6 108.3 C -23.2 112.6 -25.3 116.4 -27.6 120.3 C -28.9 122.8 -30 125.3 -31 128 C -31.7 128 -32.3 128 -33 128 C -33.2 128.9 -33.2 128.9 -33.4 129.7 C -34 132.1 -34.8 134.2 -35.8 136.4 C -37.9 141.6 -39.8 146.8 -41.8 152 C -43 154.9 -44.4 157.4 -46 160 C -47.1 162.6 -48.1 165.2 -49 167.8 C -50 170 -50 170 -52 172 C -52.5 173.9 -53 175.7 -53.4 177.6 C -54.3 181.2 -55.2 184.7 -56.6 188.1 C -58 191.8 -58.7 195.5 -59.4 199.4 C -60 202.1 -61.1 204.5 -62.2 207 C -63.8 210.9 -64.9 215.1 -66 219.2 C -66.3 220.1 -66.5 221 -66.8 222 C -68.4 227.8 -70 233.6 -71.4 239.4 C -71.8 241.3 -72.4 243.2 -72.9 245.1 C -74.7 251.3 -75.9 257.7 -77.2 264.1 C -77.4 265.1 -77.7 266.1 -77.9 267.1 C -78.1 268 -78.3 268.9 -78.5 269.9 C -79 272 -79 272 -80 273 C -80.3 274.6 -80.6 276.2 -80.8 277.8 C -81 278.9 -81.1 279.9 -81.3 281 C -81.5 282.1 -81.6 283.2 -81.8 284.4 C -82 285.5 -82.2 286.7 -82.3 287.9 C -82.7 290.4 -83.1 292.9 -83.4 295.3 C -84 298.8 -84.5 302.2 -85 305.6 C -88.3 326.2 -90.1 346.9 -91.8 367.7 C -91.9 369.4 -92 371 -92.2 372.6 C -92.4 375.8 -92.7 378.9 -92.9 382 C -93.5 389.2 -94.2 396 -96 403 C -96.2 404.2 -96.4 405.3 -96.6 406.6 C -98.4 416 -101.7 423.1 -107 431 C -106.415 431.91 -106.536 434.045 -109 433 C -111.3 433 -113.6 433 -116 433 C -116 432.3 -119.3 431 -121 431 C -137.3 402 -141 362.8 -141.2 330.1 C -141.2 329 -141.3 328 -141.3 326.8 C -141.4 302.9 -141.3 279.6 -137 256 C -136.8 254.8 -136.6 253.5 -136.3 252.2 C -133.6 237.3 -130 222.6 -125.6 208.1 C -124.8 205.3 -124 202.5 -123.3 199.6 C -122.2 195.6 -120.7 191.9 -119 188 C -118.4 185.9 -117.7 183.8 -117.1 181.8 C -115.6 176.7 -113.7 172 -111.4 167.2 C -109.2 162.2 -107.4 157.1 -105.6 152 C -98.6 132.7 -88.8 114.2 -79.1 96.1 C -78.1 94.1 -77 92.1 -76 90.2 C -62.2 63.8 -46.5 37.6 -26.4 15.5 C -25.9 14.9 -25.4 14.4 -24.8 13.8 C -23.6 12.5 -22.3 11.2 -21 10 C -20.3 10 -19.7 10 -19 10 C -19 9.3 -19 8.7 -19 8 C -16.9 6.3 -16.9 6.3 -14.1 4.4 C -13.2 3.8 -12.3 3.2 -11.4 2.6 C -7.3 -0.1 -4.8 -0.1 0 0 Z" fill="#FDF2DF" transform="translate(435,554)"></path>
  <path d="M 0 0 C 1.3 0.4 1.3 0.4 2.6 0.8 C 11.6 4 22.8 9.8 29.5 16.5 C 31.5 18.4 33.7 19.5 36.1 20.7 C 38.7 22.5 40.8 24.7 43 27 C 44.7 28.4 46.3 29.8 48 31.2 C 66.2 47.8 80.1 71.7 87.9 94.8 C 88.8 97.5 89.9 100.1 91 102.8 C 93.7 109.5 95.5 116.5 97.4 123.6 C 97.8 125.1 98.2 126.7 98.6 128.3 C 101.8 139.8 103.8 151.4 105.4 163.1 C 105.6 163.9 105.7 164.7 105.8 165.4 C 108 181.3 109.7 197.1 111.2 213 C 111.5 216 111.7 219 112 222.1 C 113.7 239.8 115.3 257.5 116.9 275.2 C 116.9 276.1 117 277 117.1 277.9 C 117.8 286.5 118.6 295 119.3 303.6 C 121.1 324.6 123.2 345.4 125.6 366.3 C 126.1 370.9 126.6 375.5 127.1 380.2 C 127.3 381.5 127.4 382.8 127.6 384.2 C 127.8 386.2 128 388.2 128.2 390.2 C 129.2 399.2 130.2 408.2 131.3 417.1 C 132.1 424.4 133 431.7 133.8 438.9 C 134 441 134.2 443 134.5 445 C 136.3 461.1 137.3 477 137.2 493.2 C 137.2 494 137.2 494.8 137.2 495.6 C 137.2 497.9 137.2 500.2 137.2 502.5 C 137.2 503.2 137.2 503.9 137.2 504.6 C 137.1 508.2 136.8 511.5 136 515 C 136.8 514.9 137.7 514.8 138.5 514.8 C 148.9 515.5 157.8 524.4 164.6 531.8 C 166.8 534.5 168.9 537.2 171 540 C 171.6 540.7 172.1 541.5 172.7 542.2 C 174.2 544.1 175.6 546.1 177 548 C 177.5 548.6 178 549.2 178.4 549.9 C 180.9 553.2 182.6 555.8 183 560 C 183.7 560 184.3 560 185 560 C 191.2 571.2 197.3 582.4 203.1 593.8 C 203.5 594.7 204 595.6 204.4 596.5 C 211 609.6 211 609.6 211 616 C 211.7 616 212.3 616 213 616 C 213.3 616.8 213.7 617.6 214 618.4 C 216.8 625.1 216.8 625.1 219.7 631.9 C 221 635 221 635 221.9 637.6 C 223.3 641.8 224.9 645.9 226.5 650 C 228.5 655 230.4 659.9 232 665 C 232.4 666.3 232.9 667.6 233.3 668.9 C 236.1 677 238.7 685.1 240.9 693.4 C 241.1 694.2 241.3 695 241.5 695.8 C 241.7 696.6 241.9 697.3 242.1 698.1 C 242.3 698.7 242.5 699.4 242.6 700.1 C 243 702 243 702 243 706 C 243.7 706 244.3 706 245 706 C 247.6 716.2 250 726.4 252.2 736.7 C 253.3 741.8 254.4 746.9 255.6 751.9 C 257.3 759.3 258.7 766.6 260 774 C 260.2 775 260.3 775.9 260.5 776.9 C 263.4 793.9 264.8 810.6 265 827.8 C 265 830.2 265 832.5 265.1 834.8 C 265.5 873.6 265.5 873.6 263 892 C 262.8 893.2 262.8 893.2 262.7 894.4 C 260.7 909.3 256.3 923 251 937 C 250.3 937 249.7 937 249 937 C 248.8 937.8 248.6 938.6 248.4 939.4 C 244.7 948.6 237.1 956 228.7 960.9 C 222 962.9 215.7 963.3 209.4 960.1 C 199.6 953.8 192.5 945.5 186 936 C 185.5 935.3 185 934.5 184.5 933.8 C 176.8 921.8 171.1 908.2 166 895 C 165.3 893.3 164.7 891.7 164 890 C 164 890.7 163.9 891.4 163.9 892.1 C 163.4 899.3 162.3 906.4 160.9 913.5 C 160.2 916.7 159.7 919.9 159.2 923.1 C 157.1 935.7 153.9 947.6 149.8 959.7 C 148.8 962.7 147.8 965.7 146.8 968.8 C 143.8 977.8 140 986.4 136 995 C 135.7 995.7 135.3 996.5 135 997.2 C 133.8 999.7 132.7 1002.2 131.5 1004.7 C 131.1 1005.5 130.8 1006.3 130.4 1007.1 C 127.9 1012.3 125.2 1017.2 122 1022 C 121.6 1022.6 121.2 1023.2 120.8 1023.8 C 111.5 1038.3 101.2 1051.8 89 1064 C 89.3 1066.7 89.8 1069.3 90.5 1071.9 C 91.9 1076.8 92.2 1081 92 1086 C 92.9 1086.3 93.7 1086.5 94.6 1086.8 C 97.9 1088 100.9 1089.4 104 1091 C 104 1091.7 104 1092.3 104 1093 C 105.3 1093.4 105.3 1093.4 106.6 1093.8 C 110.2 1095.1 113 1096.7 116 1099 C 116 1099.7 116 1100.3 116 1101 C 116.7 1101.2 117.4 1101.4 118.1 1101.7 C 121.7 1103.3 124.4 1105.6 127.3 1108.1 C 127.9 1108.6 128.5 1109.1 129 1109.6 C 139.8 1119 151.6 1129.9 153.3 1144.9 C 153.5 1150.3 153.2 1154.5 150 1159 C 142.5 1166.1 135.5 1166.4 125.7 1166.4 C 120 1166.6 116.4 1167 112 1171 C 110.3 1173.6 110.3 1173.6 109 1176.4 C 105.4 1183.5 101.3 1186.8 94 1190 C 83.3 1191.6 74.5 1188.7 65 1184 C 60 1181.6 55.5 1180.9 50 1182 C 45.1 1184 40.6 1186.5 36 1189 C 29.7 1192.4 24.8 1192.9 17.8 1191.6 C 12.2 1189.9 9.4 1186.6 6 1182 C 5.4 1181.4 4.9 1180.7 4.3 1180.1 C -2.8 1168.8 -1.1 1154.7 -1 1142 C -0.3 1142 0.3 1142 1 1142 C 0.9 1140.9 0.8 1139.9 0.8 1138.8 C 0.8 1130 4.9 1121.6 9 1114 C 3.5 1115.4 -1.8 1116.9 -7.1 1118.9 C -13.9 1121.4 -20.7 1123.1 -27.7 1124.5 C -29.2 1124.8 -30.6 1125.1 -32.1 1125.5 C -57.2 1131 -86.4 1130 -111.4 1124.5 C -115.3 1123.7 -119.3 1123.1 -123.2 1122.5 C -134.5 1120.4 -145.4 1115.2 -156 1111 C -155.7 1111.7 -155.3 1112.3 -155 1113 C -154.4 1114.4 -154.4 1114.4 -153.7 1115.8 C -153.3 1116.6 -152.8 1117.5 -152.4 1118.4 C -148.6 1128.2 -147.6 1137.3 -147.8 1147.8 C -147.8 1148.9 -147.8 1150.1 -147.9 1151.3 C -147.9 1154.2 -147.9 1157.1 -148 1160 C -148.7 1159.3 -149.3 1158.7 -150 1158 C -150.3 1160.6 -150.7 1163.3 -151 1166 C -151.3 1166 -151.7 1166 -152 1166 C -152 1165 -152 1165 -152 1164 C -152.3 1146.2 -153.8 1130.3 -160.4 1113.7 C -160.7 1113 -161 1112.3 -161.3 1111.6 C -163.2 1107.1 -165.4 1104.2 -169 1101 C -169.1 1101.8 -169.2 1102.6 -169.3 1103.4 C -170 1106 -170 1106 -173 1108 C -172.8 1106.7 -172.7 1105.5 -172.5 1104.2 C -170.4 1085.4 -170.4 1085.4 -176 1068 C -176.6 1066.8 -176.6 1066.8 -177.3 1065.6 C -181.6 1058.3 -187.9 1053.6 -196 1051 C -201.8 1050.4 -208.6 1049.8 -214 1052.4 C -219.9 1057.5 -223.3 1063.9 -226 1071 C -227 1069 -227 1069 -226.4 1067.1 C -226.2 1066.3 -225.9 1065.6 -225.6 1064.9 C -225.3 1064.2 -225 1063.4 -224.7 1062.7 C -224.5 1062.1 -224.2 1061.6 -224 1061 C -224.7 1060.9 -225.5 1060.9 -226.2 1060.8 C -229.9 1059.7 -231.2 1057.9 -233.7 1055 C -236.4 1051.5 -236.4 1051.5 -240 1049 C -243 1044.5 -243 1044.5 -243 1042 C -243.7 1042 -244.3 1042 -245 1042 C -245.3 1041 -245.7 1040 -246 1039 C -245 1039 -244 1039 -243 1039 C -241.2 1040.9 -241.2 1040.9 -239.3 1043.4 C -236.5 1047.1 -233.7 1050.6 -230.6 1054.1 C -230 1054.8 -229.3 1055.5 -228.7 1056.3 C -227.1 1058.1 -227.1 1058.1 -225 1059 C -224.8 1058.3 -224.6 1057.6 -224.4 1056.9 C -222.1 1052.2 -218.3 1049.2 -213.7 1046.8 C -205.8 1044.4 -196.7 1045.2 -189.3 1048.7 C -179.2 1054.5 -169.6 1063.6 -166.4 1075.2 C -166 1078.3 -165.9 1081.4 -165.9 1084.5 C -165.9 1092.9 -165.9 1092.9 -162.6 1100.3 C -136.5 1123.1 -83.3 1123.6 -51.2 1121.8 C -41.6 1121.1 -32.3 1119.5 -23 1117 C -21.8 1116.7 -21.8 1116.7 -20.6 1116.4 C -10.9 1113.8 -1.4 1111.1 7.7 1106.9 C 10 1106 10 1106 14 1106 C 14.4 1105.1 14.4 1105.1 14.8 1104.2 C 16 1102 17.2 1100.9 19 1099.2 C 23 1094.7 22.9 1089.6 23.5 1083.7 C 25 1072.2 32 1062.2 41 1055 C 43.9 1054.1 43.9 1054.1 46 1054 C 44.5 1057.5 42.4 1059.8 39.7 1062.5 C 30.6 1072.4 29 1083.5 28.4 1096.4 C 28.4 1097.3 28.4 1098.2 28.3 1099.2 C 28.2 1101.5 28.1 1103.7 28 1106 C 27.3 1106 26.7 1106 26 1106 C 25.7 1103.7 25.3 1101.4 25 1099 C 10 1116.6 3.3 1139.1 5 1162 C 6.3 1171 9 1178.4 15.8 1184.5 C 20.7 1186.8 24.5 1186.8 29.5 1185.2 C 34.5 1183.4 38.6 1181 43 1178 C 52.1 1174.5 60.4 1174.9 69.3 1178.9 C 70.5 1179.4 71.6 1180 72.8 1180.5 C 80.4 1184 87.7 1185.4 95.8 1182.8 C 100.8 1180 102.8 1176.5 105.4 1171.5 C 108 1166.6 111 1163.5 116 1161 C 117.4 1160.9 118.9 1160.8 120.3 1160.8 C 121.1 1160.8 122 1160.7 122.9 1160.7 C 124.7 1160.7 126.5 1160.6 128.3 1160.6 C 134.8 1160.3 141 1159.8 146 1155.1 C 148.5 1150 147.8 1144.4 146 1139 C 142.2 1130.6 136.5 1124.4 130 1118 C 129.3 1117.3 128.6 1116.6 127.9 1115.9 C 120.9 1109.4 112.9 1104.2 105 1099 C 104.1 1098.4 104.1 1098.4 103.3 1097.8 C 97.4 1093.9 97.4 1093.9 91 1091 C 90.9 1091.7 90.8 1092.4 90.6 1093.2 C 90.5 1094.1 90.3 1095 90.1 1095.9 C 89.9 1097.3 89.9 1097.3 89.6 1098.7 C 89.4 1099.5 89.2 1100.2 89 1101 C 88.3 1101.3 87.7 1101.7 87 1102 C 87 1101.4 87 1100.8 86.9 1100.2 C 86.8 1074.6 86.8 1074.6 75 1053 C 71.4 1051.2 68.2 1050.7 64.2 1050.4 C 62.7 1050.3 62.7 1050.3 61.2 1050.1 C 60.5 1050.1 59.8 1050.1 59 1050 C 59.3 1049 59.7 1048 60 1047 C 64 1045 68.4 1045.6 72.6 1046.7 C 78.3 1048.7 81.7 1050.8 85 1056 C 85 1057 85 1058 85 1059 C 86 1058.2 86.9 1057.4 87.9 1056.6 C 88.8 1056 88.8 1056 89.6 1055.3 C 91.1 1054 91.1 1054 92 1052 C 92.7 1052 93.3 1052 94 1052 C 94.3 1051.4 94.5 1050.9 94.8 1050.3 C 96.2 1047.7 97.8 1045.6 99.7 1043.4 C 116.5 1022.7 128.7 998.6 138.3 973.8 C 138.9 972.2 139.6 970.5 140.2 968.9 C 144.6 957.6 147.3 945.8 150.2 934.1 C 150.9 931.6 151.5 929.1 152.2 926.6 C 159.1 900.3 160.5 871.7 161.5 844.6 C 161.6 843.4 161.6 842.3 161.6 841.1 C 162.1 827.5 162.3 813.9 162.6 800.3 C 162.6 797.7 162.6 795.2 162.7 792.6 C 162.8 786.4 162.9 780.2 163 774 C 163.3 774 163.7 774 164 774 C 164 776.6 164 779.3 164 782 C 164.7 782 165.3 782 166 782 C 166 780.4 166 778.7 166 777 C 166.3 777 166.7 777 167 777 C 167 787.1 167 797.2 167.1 807.3 C 167.1 812 167.1 816.7 167.1 821.4 C 167.1 825.9 167.1 830.5 167.1 835 C 167.1 836.7 167.1 838.5 167.1 840.2 C 167.1 850 167 859.8 166.2 869.7 C 165.8 876.4 167 882 169.5 888.2 C 169.9 889.3 170.2 890.3 170.6 891.3 C 173.6 899.4 177.1 907.3 181 915 C 181.3 915.7 181.7 916.4 182 917.2 C 184.1 921.7 186.8 925.9 189.4 930.1 C 189.8 930.7 190.2 931.3 190.6 931.9 C 192.5 934.9 194.5 937.6 196.8 940.3 C 199 943 199 943 199 945 C 199.7 945 200.3 945 201 945 C 200.9 944.5 200.8 943.9 200.7 943.4 C 198.8 930.3 197.7 917.5 197.5 904.3 C 197.3 891.5 196.6 878.9 195.6 866.1 C 195.5 865.4 195.4 864.6 195.4 863.8 C 194.7 855.4 193.8 847.1 192.4 838.8 C 191.9 834.9 191.8 831.1 191.9 827.2 C 191.9 826.5 191.9 825.8 191.9 825.1 C 191.9 823.4 192 821.7 192 820 C 192.7 820 193.3 820 194 820 C 194.3 823.3 194.7 826.6 195 830 C 195.7 830 196.3 830 197 830 C 199.9 854.7 202.4 879.3 203.5 904.2 C 203.5 906 203.6 907.8 203.7 909.6 C 203.9 913.1 204 916.6 204.1 920.1 C 204.6 932.1 205.6 943.6 212 954 C 215.8 956.4 219.6 956.7 224 956 C 234.9 952.1 240.8 943.2 245.7 933.2 C 257.5 907.9 259.2 878.3 259.1 850.7 C 259.1 849.8 259.1 848.9 259.1 848 C 259.1 825.8 258.2 804 255 782 C 254.9 781 254.7 780.1 254.6 779.1 C 251.6 758.7 246.8 738.8 241.7 718.9 C 241.2 717 240.8 715 240.3 713.1 C 238.4 705.3 236.1 697.6 233.8 689.9 C 233.6 689.3 233.4 688.7 233.2 688 C 230.2 678.5 227 669.1 223.4 659.8 C 222.3 656.8 221.3 653.7 220.4 650.6 C 218.7 644.8 216.3 639.5 214 634 C 213 631.7 212 629.3 211 627 C 210.3 625.3 209.6 623.7 208.9 622 C 207.1 617.6 205.3 613.2 203.5 608.8 C 193.2 584.1 179.1 554.7 159.7 535.8 C 158 534 158 534 158 532 C 157.1 531.6 157.1 531.6 156.2 531.2 C 153.1 529.5 150.7 527.1 148 524.7 C 143.5 521 139.6 520.6 134 520 C 133.9 521.1 133.8 522.3 133.6 523.4 C 133.4 524.6 133.2 525.8 133 527 C 132.3 527.3 131.7 527.7 131 528 C 130.8 526.5 130.6 525 130.4 523.5 C 130.3 522.7 130.2 521.8 130.1 521 C 130 518.1 130.3 515.4 130.7 512.6 C 131.4 506.5 131.3 500.4 131.3 494.2 C 131.3 493.5 131.3 492.7 131.3 491.9 C 131.4 466.6 128.5 441.3 125.3 416.2 C 121 382.8 117.6 349.3 114.5 315.8 C 113.8 308.1 113.1 300.4 112.4 292.7 C 112.1 290.2 111.9 287.7 111.7 285.2 C 111.2 280.4 110.8 275.7 110.3 270.9 C 110.1 268.5 109.9 266 109.6 263.5 C 109.4 261.6 109.4 261.6 109.3 259.7 C 108.4 250.5 107.6 241.3 106.8 232 C 106.5 229.5 106.3 227 106.1 224.5 C 105.7 219.5 105.2 214.5 104.8 209.5 C 103.8 198.3 102.8 187.1 101 176 C 100.6 173.5 100.3 170.9 99.9 168.4 C 97.6 153.1 95.1 137.9 91 123 C 90.8 122.2 90.5 121.3 90.3 120.4 C 81.6 89.2 67.7 60.5 45 37 C 44.2 36.2 44.2 36.2 43.4 35.3 C 16.7 8 -20.2 -3.4 -57.5 -4.2 C -73.2 -4.3 -88.3 -1.3 -103 4 C -104.1 4.4 -105.2 4.8 -106.3 5.2 C -119.4 9.9 -131.1 16.4 -142 25 C -142.9 25.7 -143.9 26.5 -144.9 27.2 C -150.6 31.7 -155.5 36.3 -160 42 C -160.8 43 -161.6 43.9 -162.4 44.9 C -176.8 63 -187.4 83.8 -194 106 C -194.5 107.5 -195 109.1 -195.6 110.6 C -196 112.1 -196.5 113.5 -197 115 C -197.3 116 -197.6 116.9 -198 117.9 C -203 133.6 -205.4 149.8 -208 166 C -208.1 166.7 -208.2 167.4 -208.3 168.1 C -210.5 182.1 -212.3 196.2 -213.9 210.2 C -214.1 212.5 -214.4 214.8 -214.7 217.1 C -216.7 234.6 -218.5 252.1 -220.3 269.6 C -221.4 280.8 -222.7 291.9 -224.3 303 C -225.2 309.1 -225.8 315.2 -226.5 321.3 C -227.9 334.6 -229.8 347.9 -231.6 361.2 C -232 364.1 -232.4 367 -232.8 369.9 C -233 371.8 -233.3 373.7 -233.6 375.6 C -233.7 376.5 -233.8 377.4 -233.9 378.3 C -234.6 383.5 -235.4 388.6 -236.1 393.8 C -236.9 399.1 -237.5 404.5 -237.9 409.9 C -238.6 418.5 -239.6 427.2 -240.7 435.8 C -243.9 460.6 -246.7 485.5 -244.2 510.6 C -244 513.4 -243.9 516.3 -243.9 519.2 C -243.9 520.1 -244 521 -244 522 C -244 522.6 -244 523.3 -244 524 C -244.7 524 -245.3 524 -246 524 C -246.3 522.7 -246.7 521.4 -247 520 C -253.4 520.9 -257.5 522.6 -262.4 526.8 C -264 528 -264 528 -266 528 C -266 528.7 -266 529.3 -266 530 C -267.3 531.2 -267.3 531.2 -269.1 532.6 C -276.1 538.4 -281.5 545.8 -286.9 553.1 C -287.5 554 -288.1 554.8 -288.7 555.7 C -297.6 567.8 -305.2 580.6 -312.7 593.7 C -313.9 595.8 -315.1 597.9 -316.3 600.1 C -321.9 609.7 -326.9 619.6 -331.8 629.6 C -333.3 632.6 -334.8 635.6 -336.3 638.5 C -339.7 645.3 -342.9 652.1 -346 659 C -346.5 660.2 -347.1 661.4 -347.6 662.6 C -351.6 671.5 -355.1 680.5 -358.4 689.7 C -359.6 693 -360.9 696.3 -362.2 699.6 C -363.9 703.5 -365.1 707.5 -366.3 711.6 C -367 713.8 -367.7 716.1 -368.4 718.3 C -369 719.9 -369.5 721.4 -370 723 C -370.3 723.9 -370.6 724.7 -370.9 725.6 C -381.9 760.1 -387.6 795.8 -387.3 832 C -387.3 835.5 -387.3 838.9 -387.3 842.4 C -387.3 855.4 -386.7 868.1 -385 881 C -384.9 881.7 -384.8 882.4 -384.7 883.2 C -384.2 887.3 -383.6 891.5 -382.9 895.7 C -382.6 897.7 -382.3 899.7 -382 901.8 C -379.3 920 -375.8 943.8 -362 957 C -362 957.7 -362 958.3 -362 959 C -356.4 961.4 -351 961.6 -345 961 C -342 959.7 -342 959.7 -340 958 C -339.3 958 -338.7 958 -338 958 C -337.8 957.3 -337.5 956.6 -337.2 955.9 C -336 953 -336 953 -334.1 949.8 C -331.9 946.1 -330.8 942.3 -329.7 938.1 C -329 936 -329 936 -327 934 C -325.3 941.1 -325.6 946.4 -329 953 C -329.5 954 -329.5 954 -330 955 C -333.6 961.5 -339 965.7 -346 968 C -353.3 968.5 -358.7 967.3 -364.8 963.1 C -367.1 960.9 -369.1 958.7 -371 956 C -371.719 955.711 -372.675 954.214 -373 954 C -377.6 943.1 -381.8 932.6 -384 921 C -384.3 919.7 -384.6 918.4 -384.9 917.1 C -387.7 905.1 -389.3 893 -390.7 880.8 C -390.8 880.1 -390.9 879.4 -390.9 878.7 C -391.2 876.8 -391.4 875 -391.6 873.1 C -391.9 870.2 -391.9 870.2 -392.5 868.1 C -393 865.9 -393.1 864.1 -393.1 861.9 C -393.1 861.1 -393.1 860.3 -393.1 859.5 C -393.1 858.6 -393.1 857.7 -393.1 856.8 C -393.1 855.9 -393.1 855 -393.1 854.1 C -393.1 851.1 -393.1 848.2 -393.1 845.2 C -393.1 843.8 -393.1 843.8 -393.1 842.2 C -393.1 816.7 -392.3 792 -387 767 C -386.3 763.4 -385.7 759.9 -385.1 756.3 C -383.9 749.2 -382.1 742.2 -380.2 735.2 C -380 734.3 -380 734.3 -379.7 733.3 C -377.3 724.4 -374.7 715.8 -371.3 707.3 C -370 704 -368.9 700.6 -367.9 697.1 C -365.7 689.7 -362.8 682.7 -359.6 675.7 C -357.7 671.6 -356 667.5 -354.4 663.3 C -352.9 659.2 -351.2 655.2 -349.1 651.2 C -347.6 648.2 -346.2 645.2 -344.8 642.1 C -340.7 633.3 -336.4 624.7 -332 616 C -331.3 616 -330.7 616 -330 616 C -329.9 615.3 -329.8 614.6 -329.7 613.8 C -329 610.8 -327.9 608.5 -326.5 605.8 C -325.7 604.3 -325.7 604.3 -324.9 602.8 C -324.4 601.8 -323.9 600.8 -323.3 599.8 C -322.8 598.8 -322.3 597.8 -321.7 596.7 C -318.9 591.3 -315.9 586.1 -312.4 581.1 C -310.7 578.5 -309.1 576 -307.5 573.4 C -299.4 560.1 -290.7 547.4 -280 536 C -278.8 534.6 -277.7 533.3 -276.5 531.9 C -269.8 524.2 -262.4 518.1 -253 514 C -252 514 -251 514 -250 514 C -250.2 512.8 -250.3 511.5 -250.5 510.2 C -255.5 464.3 -245.2 415.6 -239.2 370.2 C -238.1 362.1 -237.1 354.1 -236.1 346 C -235.2 338.9 -234.3 331.7 -233.4 324.6 C -230 298.4 -226.8 272.1 -224 245.9 C -222.8 234.4 -221.5 222.9 -220.1 211.4 C -219.3 205.7 -218.6 199.9 -218 194.2 C -211.5 131.9 -211.5 131.9 -199.9 104.3 C -199 101.9 -198.2 99.4 -197.5 96.9 C -196.4 93 -194.9 89.6 -193 86 C -191.9 83.8 -191.1 81.6 -190.2 79.3 C -181.8 58 -166.5 35.8 -148 22 C -147.3 22 -146.7 22 -146 22 C -146 21.3 -146 20.7 -146 20 C -144.1 18.6 -144.1 18.6 -141.3 16.9 C -140.3 16.3 -139.3 15.6 -138.3 15 C -137.2 14.3 -136.1 13.7 -135 13 C -133.9 12.3 -132.9 11.6 -131.8 10.9 C -114.8 0.2 -96.8 -5.9 -77 -9 C -75.6 -9.3 -75.6 -9.3 -74.1 -9.5 C -49.1 -13.3 -23.6 -7.9 0 0 Z" fill="#4D3A1F" transform="translate(682,34)"></path>
  <path d="M0 0 C2.4 2.4 2.5 3.8 3 7 C3.7 4.7 4.3 2.4 5 0 C12.5 -0.8 16.2 1.4 22 6 C22.6 6.4 23.2 6.9 23.8 7.3 C29.4 11.8 33.7 17.4 38 23 C38.6 23.8 39.3 24.6 39.9 25.5 C56.2 47 68.5 72.2 79 97 C79.4 98 79.4 98 79.9 99.1 C86.2 113.9 91.9 128.7 97 144 C97.6 145.9 98.3 147.8 98.9 149.8 C101 155.8 103 161.9 105 168 C105.3 168.9 105.6 169.8 105.9 170.7 C109.1 180.4 111.8 190 113.9 200.1 C115.4 207 117.1 214 118.8 220.9 C119.3 222.9 119.8 224.9 120.3 226.9 C120.8 229 121.3 231 121.8 233 C124 242.2 125.3 251.5 126.6 260.8 C126.8 262.4 127.1 263.9 127.3 265.5 C134.2 315.1 139.1 381 111 425 C106.4 431 100.5 436.1 92.9 437.3 C89.8 437.5 87.2 437.1 84.3 436.1 C75.3 427.9 74.9 414.7 74.4 403.3 C74.3 401.6 74.2 400 74.2 398.3 C73.5 382.1 72.5 365.9 71.1 349.6 C71 348.1 70.8 346.5 70.7 345 C70.7 344.2 70.6 343.5 70.5 342.7 C70.1 337.7 69.8 332.6 69.5 327.6 C68.8 314.9 67.9 302.8 64.6 290.5 C63.3 285.2 62.1 280 60.8 274.7 C60.4 273.1 60.4 273.1 60 271.5 C58.4 264.9 57.6 258.5 57.2 251.8 C57.1 248.8 57.1 248.8 55.9 245.3 C54.7 240.8 54.8 236.6 55 232 C57 234 57 234 59 236 C58.5 234.8 58.5 234.8 58.1 233.5 C56.9 229.8 56.2 226.2 55.6 222.4 C54.5 216.4 53.2 210.5 51.6 204.6 C50.9 201.7 50.9 199 51 196 C51.7 196 52.3 196 53 196 C55.1 199.6 55.9 203.3 56.8 207.3 C57 208.1 57.2 208.8 57.3 209.6 C59.4 218.7 61.4 227.8 63.3 236.9 C63.8 239 64.2 241.2 64.7 243.3 C65.4 246.5 66.1 249.8 66.8 253.1 C67 254.1 67.3 255.1 67.5 256.1 C68.5 260.8 69.3 265.2 69 270 C69.7 270 70.3 270 71 270 C71.2 271.3 71.4 272.5 71.6 273.8 C72.8 282.1 74 290.3 75.6 298.5 C76.7 304 77.4 309.3 77.7 314.9 C78 318 78.4 321 78.9 324.1 C82.2 344.8 83.4 365.3 83.7 386.2 C83.8 390.1 83.9 394.1 84 398 C84 398.8 84 399.6 84 400.4 C84.1 402.6 84.2 404.8 84.3 407.1 C84.3 408.4 84.4 409.7 84.4 411 C84.7 414.1 84.7 414.1 87 415.4 C87.7 415.6 88.3 415.8 89 416 C89.1 414.8 89.2 413.6 89.4 412.4 C89.7 409.8 90.2 407.4 90.9 404.8 C92 400.9 92.7 397.1 93.3 393 C93.4 392.3 93.5 391.6 93.6 390.8 C93.8 389.2 94 387.7 94.2 386.1 C94.6 383.8 94.9 381.4 95.2 379.1 C95.4 377.5 95.7 376 95.9 374.5 C96 373.8 96.1 373.1 96.2 372.4 C97.6 362.2 98.2 352.1 98.1 341.9 C98.1 340 98.1 340 98.1 338.2 C98.1 335.6 98.1 333.1 98.1 330.5 C98.1 326.6 98.1 322.7 98.1 318.8 C98.1 316.3 98.1 313.8 98.1 311.4 C98.1 309.6 98.1 309.6 98.1 307.8 C98.1 306.7 98.1 305.7 98.1 304.5 C98.1 303.6 98.1 302.6 98.1 301.7 C98 299 97.6 296.6 97 294 C96.9 292.4 96.7 290.7 96.6 289.1 C95.2 265.3 92.2 241.5 86.9 218.2 C86.3 215.4 85.7 212.5 85.2 209.6 C82.7 195 79 180.7 75.4 166.4 C75.1 165.6 74.9 164.7 74.7 163.8 C74.3 162.2 73.8 160.5 73.4 158.9 C72.6 155.9 72 153.2 72 150 C71.3 150 70.7 150 70 150 C65.1 134.7 65.1 134.7 63.4 128.1 C61.5 121.2 59.5 114.8 56.2 108.4 C52.8 101.8 50.2 95 47.7 88 C46.9 85.8 46.1 83.7 45.3 81.6 C44 78 44 78 44 76 C43.3 76 42.7 76 42 76 C41.7 74 41.3 72 41 70 C40.3 70 39.7 70 39 70 C38.6 68.8 38.2 67.6 37.8 66.4 C36.7 63.5 35.5 61.1 33.8 58.6 C32 56 32 56 32 54 C31.3 54 30.7 54 30 54 C29.7 52.4 29.3 50.7 29 49 C28.3 49 27.7 49 27 49 C26.6 48.1 26.1 47.1 25.7 46.2 C24.3 43.5 23.1 42 21 40 C21 39.3 21 38.7 21 38 C20.3 38 19.7 38 19 38 C19 37.3 19 36.7 19 36 C18.4 35.7 17.8 35.4 17.1 35.1 C15.8 34.4 14.4 33.7 13 33 C13 32.3 13 31.7 13 31 C7.2 30.8 2.6 31.4 -3 33 C-3 33.7 -3 34.3 -3 35 C-8.4 38 -8.4 38 -14 41 C-14 40.3 -14 39.7 -14 39 C-14.7 39 -15.3 39 -16 39 C-16 39.7 -16 40.3 -16 41 C-17.3 41 -18.6 41 -20 41 C-21.7 42.1 -21.7 42.1 -23.1 43.5 C-26 46 -26 46 -28 46 C-26.3 42 -23.6 39.1 -20.8 35.9 C-15 29.2 -9.9 22.1 -6 14 C-5.3 14 -4.7 14 -4 14 C-3.9 13.4 -3.8 12.7 -3.7 12.1 C-2.8 7.9 -1.4 4 0 0 Z " fill="#E5D4BA" transform="translate(811,554)"></path>
  <path d="M 0 0 C 0.879 -0.247 6.011 2.78 6 5 C 5.96 5.581 18.3 19.803 19 23 C 20.7 25.5 20.7 25.5 22.6 28.8 C 23.3 29.8 23.9 30.9 24.5 32 C 26 35 31.4 46.1 31.6 46.7 C 37.2 61.6 37.2 61.6 43.7 76.1 C 47.1 83.5 49.5 91.3 52.1 99 C 52.7 100.6 52.7 100.6 53.2 102.2 C 55.1 107.8 56.5 113 57 119 C 57.7 119 58.3 119 59 119 C 59.2 119.8 59.4 120.5 59.6 121.3 C 63.8 138.5 63.8 138.5 68.3 155.7 C 70.2 162.6 71.8 169.5 72.9 176.6 C 73.5 180.5 74.2 184.2 75.1 188 C 78.1 201.1 80.1 214.2 81.8 227.5 C 81.9 228.3 82 229.2 82.1 230.1 C 83.3 239.9 84.3 249.8 84.8 259.7 C 84.9 262.9 86.3 298.2 86.3 302 C 86.4 329.4 84.5 358.7 76 385 C 72.1 384.1 72.1 384.1 71 383 C 70 373.1 69.9 363.2 69.8 353.2 C 69.5 337.5 68.8 321.9 67 306.2 C 66.9 305.4 66.8 304.6 66.7 303.8 C 65.9 295.3 60.8 263.7 59.3 255.4 C 58.3 249.9 55.7 237.2 55.3 235.4 C 53.2 224.9 51.1 214.5 48.8 204 C 47.8 199.7 46.8 195.3 46 190.9 C 45.1 186.3 44 181.7 42.9 177.1 C 42.8 176.4 42.6 175.7 42.4 174.9 C 41.6 171.6 34.4 142.4 31.1 133.3 C 29.4 128.5 28.5 124.1 28 119 C 27.3 119 26.7 119 26 119 C 25.7 118 25.4 117 25.1 116 C 19.4 97 11.7 79.1 1.6 61.9 C 0 59 -3.2 55.4 -4.4 53.2 C -5.7 51 -12 43 -13 43 C -14.2 41.9 -15.4 40.7 -16.5 39.5 C -22.2 33.8 -28.9 28.9 -37 28 C -38 24 -38.4 21.8 -36.6 17.9 C -31.5 12.2 -24.8 7.6 -18 4 C -17.3 4 -16 2.7 -16 2 C -10.5 -1.6 -6.2 -1 0 0 Z" fill="#FDF2DE" transform="translate(824,585)"></path>
  <path d="M 0 0 C 0.3 0 0.7 0 1 0 C 1 2.6 1 5.3 1 8 C 1.7 8 2.3 8 3 8 C 3 6.3 3 4.7 3 3 C 3.3 3 3.7 3 4 3 C 4 13.1 4 23.2 4.1 33.3 C 4.1 38 4.1 42.7 4.1 47.4 C 4.1 51.9 4.1 56.5 4.1 61 C 4.1 62.7 4.1 64.5 4.1 66.2 C 4.1 76 4 85.8 3.2 95.7 C 2.8 102.4 4 108 6.5 114.2 C 6.9 115.3 7.2 116.3 7.6 117.3 C 10.6 125.4 14.1 133.3 18 141 C 18.3 141.7 18.7 142.4 19 143.2 C 21.1 147.7 23.8 151.9 26.4 156.1 C 26.8 156.7 27.2 157.3 27.6 157.9 C 29.5 160.9 31.5 163.6 33.8 166.3 C 36 169 36 169 36 171 C 36.7 171 37.3 171 38 171 C 37.9 170.2 37.9 170.2 37.7 169.4 C 35.8 156.3 34.7 143.5 34.5 130.3 C 34.3 117.5 33.6 104.9 32.6 92.1 C 32.5 91.4 32.4 90.6 32.4 89.8 C 31.7 81.4 30.8 73.1 29.4 64.8 C 28.9 60.9 28.8 57.1 28.9 53.2 C 28.9 52.5 28.9 51.8 28.9 51.1 C 28.9 49.4 29 47.7 29 46 C 29.7 46 30.3 46 31 46 C 31.3 49.3 31.7 52.6 32 56 C 32.7 56 33.3 56 34 56 C 36.9 80.7 39.4 105.3 40.5 130.2 C 40.5 132 40.6 133.8 40.7 135.6 C 40.9 139.1 41 142.6 41.1 146.1 C 41.6 158.1 42.6 169.6 49 180 C 51.9 181.8 54.4 182.3 57.8 182.6 C 58.5 182.7 59.3 182.8 60.2 182.9 C 61.1 182.9 61.1 182.9 62 183 C 61.3 183.7 60.7 184.3 60 185 C 60.3 185.7 60.7 186.3 61 187 C 50.3 187.4 43.9 185.3 36 178 C 20.1 162.5 11 141.4 3 121 C 2.3 119.3 1.7 117.7 1 116 C 1 116.7 0.9 117.4 0.9 118.1 C 0.4 125.3 -0.7 132.4 -2.1 139.5 C -2.8 142.7 -3.3 145.9 -3.8 149.1 C -5.9 161.7 -9.1 173.6 -13.2 185.7 C -14.2 188.7 -15.2 191.7 -16.2 194.8 C -19.2 203.8 -23 212.4 -27 221 C -27.3 221.7 -27.7 222.5 -28 223.2 C -29.2 225.7 -30.3 228.2 -31.5 230.7 C -31.9 231.5 -32.2 232.3 -32.6 233.1 C -35.1 238.3 -37.8 243.2 -41 248 C -41.4 248.6 -41.8 249.2 -42.2 249.8 C -51.5 264.3 -61.8 277.8 -74 290 C -73.7 292.7 -73.2 295.3 -72.5 297.9 C -71.1 302.8 -70.8 307 -71 312 C -70.1 312.3 -69.3 312.5 -68.4 312.8 C -65.1 314 -62.1 315.4 -59 317 C -59 317.7 -59 318.3 -59 319 C -58.1 319.2 -57.3 319.5 -56.4 319.8 C -52.8 321.1 -50 322.7 -47 325 C -47 325.7 -47 326.3 -47 327 C -46 327.3 -46 327.3 -44.9 327.7 C -41.3 329.3 -38.6 331.6 -35.7 334.1 C -34.8 334.9 -34.8 334.9 -34 335.6 C -23.2 345 -11.4 355.9 -9.7 370.9 C -9.5 376.3 -9.8 380.5 -13 385 C -20.5 392.1 -27.5 392.4 -37.3 392.4 C -43 392.6 -46.6 393 -51 397 C -52.7 399.6 -52.7 399.6 -54 402.4 C -57.6 409.5 -61.7 412.8 -69 416 C -79.7 417.6 -88.5 414.7 -98 410 C -103 407.6 -107.5 406.9 -113 408 C -117.9 410 -122.4 412.5 -127 415 C -133.3 418.4 -138.2 418.9 -145.2 417.6 C -150.8 415.9 -153.6 412.6 -157 408 C -157.6 407.4 -158.1 406.7 -158.7 406.1 C -165.8 394.8 -164.1 380.7 -164 368 C -163.3 368 -162.7 368 -162 368 C -162.1 366.9 -162.2 365.9 -162.2 364.8 C -162.2 356 -158.1 347.6 -154 340 C -159.5 341.4 -164.8 342.9 -170.1 344.9 C -176.9 347.4 -183.7 349.1 -190.7 350.5 C -192.2 350.8 -193.6 351.1 -195.1 351.5 C -220.2 357 -249.4 356 -274.4 350.5 C -278.3 349.7 -282.3 349.1 -286.2 348.5 C -297.5 346.4 -308.4 341.2 -319 337 C -318.7 337.7 -318.3 338.3 -318 339 C -317.6 339.9 -317.1 340.8 -316.7 341.8 C -316 343.1 -316 343.1 -315.4 344.4 C -311.6 354.2 -310.6 363.3 -310.8 373.8 C -310.8 375.5 -310.8 375.5 -310.9 377.3 C -310.9 380.2 -310.9 383.1 -311 386 C -311.7 385.3 -312.3 384.7 -313 384 C -313.3 386.6 -313.7 389.3 -314 392 C -314.3 392 -314.7 392 -315 392 C -315 391.3 -315 390.7 -315 390 C -315.3 372.2 -316.8 356.3 -323.4 339.7 C -323.7 339 -324 338.3 -324.3 337.6 C -326.2 333.1 -328.4 330.2 -332 327 C -332.1 327.8 -332.2 328.6 -332.3 329.4 C -333 332 -333 332 -336 334 C -335.8 332.7 -335.7 331.5 -335.5 330.2 C -333.4 311.4 -333.4 311.4 -339 294 C -339.6 292.8 -339.6 292.8 -340.3 291.6 C -344.6 284.3 -350.9 279.6 -359 277 C -364.8 276.4 -371.6 275.8 -377 278.4 C -382.9 283.5 -386.3 289.9 -389 297 C -390 295 -390 295 -389.4 293.1 C -389 292 -389 292 -388.6 290.9 C -388.3 290.2 -388 289.4 -387.7 288.7 C -387.5 288.1 -387.2 287.6 -387 287 C -387.7 286.9 -388.5 286.9 -389.2 286.8 C -392.9 285.7 -394.2 283.9 -396.7 281 C -399.4 277.5 -399.4 277.5 -403 275 C -406 270.5 -406 270.5 -406 268 C -406.7 268 -407.3 268 -408 268 C -408.5 266.5 -408.5 266.5 -409 265 C -408 265 -407 265 -406 265 C -404.2 266.9 -404.2 266.9 -402.3 269.4 C -399.5 273.1 -396.7 276.6 -393.6 280.1 C -393 280.8 -392.3 281.5 -391.7 282.3 C -390.1 284.1 -390.1 284.1 -388 285 C -387.8 284.3 -387.6 283.6 -387.4 282.9 C -385.1 278.2 -381.3 275.2 -376.7 272.8 C -368.8 270.4 -359.7 271.2 -352.3 274.7 C -342.2 280.5 -332.6 289.6 -329.4 301.2 C -329 304.3 -328.9 307.4 -328.9 310.5 C -328.9 318.9 -328.9 318.9 -325.6 326.3 C -299.5 349.1 -246.3 349.6 -214.2 347.8 C -204.6 347.1 -195.3 345.5 -186 343 C -185.2 342.8 -184.4 342.6 -183.6 342.4 C -173.9 339.8 -164.4 337.1 -155.3 332.9 C -153 332 -153 332 -149 332 C -148.7 331.4 -148.5 330.8 -148.2 330.2 C -147 328 -145.8 326.9 -144 325.2 C -140 320.7 -140.1 315.6 -139.5 309.7 C -138 298.2 -131 288.2 -122 281 C -119.856 277.832 -104.418 272.024 -102.038 272.763 C -103.538 276.263 -120.6 285.8 -123.3 288.5 C -132.4 298.4 -134 309.5 -134.6 322.4 C -134.6 323.3 -134.6 324.2 -134.7 325.2 C -134.8 327.5 -134.9 329.7 -135 332 C -135.7 332 -136.3 332 -137 332 C -137.3 329.7 -137.7 327.4 -138 325 C -153 342.6 -159.7 365.1 -158 388 C -156.7 397 -154 404.4 -147.2 410.5 C -142.3 412.8 -138.5 412.8 -133.5 411.2 C -128.5 409.4 -124.4 407 -120 404 C -110.9 400.5 -102.6 400.9 -93.7 404.9 C -92.5 405.4 -91.4 406 -90.2 406.5 C -82.6 410 -75.3 411.4 -67.2 408.8 C -62.2 406 -60.2 402.5 -57.6 397.5 C -55 392.6 -52 389.5 -47 387 C -45.6 386.9 -44.1 386.8 -42.7 386.8 C -41.9 386.8 -41 386.7 -40.1 386.7 C -38.3 386.7 -36.5 386.6 -34.7 386.6 C -28.2 386.3 -22 385.8 -17 381.1 C -14.5 376 -15.2 370.4 -17 365 C -20.8 356.6 -26.5 350.4 -33 344 C -33.7 343.3 -34.4 342.6 -35.1 341.9 C -42.1 335.4 -50.1 330.2 -58 325 C -58.9 324.4 -58.9 324.4 -59.7 323.8 C -65.6 319.9 -65.6 319.9 -72 317 C -72.1 317.7 -72.2 318.4 -72.4 319.2 C -72.5 320.1 -72.7 321 -72.9 321.9 C -73.1 323.3 -73.1 323.3 -73.4 324.7 C -73.6 325.5 -73.8 326.2 -74 327 C -74.7 327.3 -75.3 327.7 -76 328 C -76 327.4 -76 326.8 -76.1 326.2 C -76.2 300.6 -76.2 300.6 -88 279 C -91.6 277.2 -94.8 276.7 -98.8 276.4 C -99.8 276.3 -100.8 276.2 -101.8 276.1 C -102.5 276.1 -103.2 276.1 -104 276 C -115.349 276.719 -103.583 274.042 -103 273 C -99 271 -94.6 271.6 -90.4 272.7 C -84.7 274.7 -81.3 276.8 -78 282 C -78 283 -78 284 -78 285 C -76.5 283.8 -76.5 283.8 -75.1 282.6 C -74.5 282.2 -74 281.7 -73.4 281.3 C -71.9 280 -71.9 280 -71 278 C -70.3 278 -69.7 278 -69 278 C -68.7 277.4 -68.5 276.9 -68.2 276.3 C -66.8 273.7 -65.2 271.6 -63.3 269.4 C -46.5 248.7 -34.3 224.6 -24.7 199.8 C -24.1 198.2 -23.4 196.5 -22.8 194.9 C -18.4 183.6 -15.7 171.8 -12.8 160.1 C -12.1 157.6 -11.5 155.1 -10.8 152.6 C -3.9 126.3 -2.5 97.7 -1.5 70.6 C -1.4 69.4 -1.4 68.3 -1.4 67.1 C -0.9 53.5 -0.7 39.9 -0.4 26.3 C -0.4 23.7 -0.4 21.2 -0.3 18.6 C -0.2 12.4 -0.1 6.2 0 0 Z" fill="#573511" transform="translate(845,808)"></path>
  <path d="M 0 0 C 2.186 -0.202 5.442 0.081 9.093 1.564 C 16.111 4.557 18.6 5.8 24 10 C 24 10.7 30.1 15.8 32 18 C 32.713 18.802 34.529 20.776 35 21 C 36.4 22.8 36.4 22.8 37.7 24.9 C 38.1 25.6 41.3 31 42 31 C 52.8 50.9 61.4 70.7 67.9 92.4 C 68.1 93.1 68.3 93.8 68.5 94.6 C 69.4 97.5 71.3 103 72 103 C 72.1 103.6 72.3 104.2 72.4 104.8 C 73 107.7 73.7 110.5 74.3 113.3 C 74.5 114.3 74.8 115.3 75 116.4 C 76.1 121.4 77.3 126.3 78.8 131.2 C 80.2 136.2 80.3 140.9 80 146 C 80.3 146 80.7 146 81 146 C 81.1 148.9 81.1 148.9 81 152 C 80.3 152.7 79.7 153.3 79 154 C 75.4 141.7 72 129.4 69 117 C 69.1 119.9 69.3 122.8 69.4 125.7 C 69.5 126.5 69.5 127.3 69.6 128.1 C 69.8 132.7 70.1 137.4 70.5 142 C 71.1 149.6 71.2 157.2 71.2 164.8 C 71.3 167.2 71.3 169.6 71.3 172 C 71.3 173.5 71.3 175.1 71.3 176.6 C 71.3 177.3 71.4 178 71.4 178.8 C 71.4 180.8 71.4 180.8 71 184 C 69.5 185 69.5 185 68 186 C 66.7 174.2 65.8 162.3 65 150.5 C 63.9 135.1 62.9 119.8 61.4 104.4 C 61.3 102.8 61.1 101.2 61 99.6 C 60 87.9 57.4 77.8 53 67 C 52.6 66 52.2 65 51.8 63.9 C 50.7 61.3 49.6 58.7 48.4 56.1 C 48 55.2 47.5 54.3 47.1 53.4 C 39.9 38 29 16.1 12 9.9 C 9.3 9.2 6.7 8.5 4 8 C 3.3 12.6 2.7 17.1 2.1 21.7 C -1 46.2 -1 46.2 -3.3 57.7 C -4.2 62.1 -4.9 66.5 -5.5 70.9 C -6 74 -6.7 76.9 -7.5 79.9 C -8.4 83.5 -8.9 87.3 -9.4 91 C -11.3 103 -13.4 114.9 -16.3 126.7 C -17 130.2 -17.7 133.8 -18.3 137.3 C -20.1 147.1 -22.6 156.7 -25.1 166.3 C -25.9 169.7 -26.8 173.2 -27.7 176.6 C -28.5 179.7 -29.2 182.9 -30 186 C -30.4 187.5 -30.8 189 -31.2 190.6 C -33.2 198.4 -35.3 206.2 -38.1 213.8 C -39.2 216.5 -40 219.3 -40.9 222.1 C -42.5 227.5 -46.5 239.8 -46.7 240.6 C -48.2 245 -49.9 249 -52.1 253.1 C -53.5 255.9 -54.4 258.9 -55.4 261.9 C -57.2 266.9 -59.2 271.6 -61.6 276.4 C -63.2 279.4 -64.6 282.6 -66.1 285.8 C -73.9 302.7 -83.2 318.7 -94 334 C -94.8 335.2 -94.8 335.2 -95.7 336.4 C -103.2 347.1 -111.3 357.1 -120.5 366.5 C -121.5 367.5 -122.5 368.5 -123.4 369.5 C -124.6 370.7 -125.8 371.9 -127 373 C -127.7 373 -129 374.3 -129 375 C -131.2 376.9 -133.4 378.8 -135.7 380.6 C -136.3 381.1 -148.7 389 -149 390 C -156.8 395.7 -165.7 399.1 -174.7 402.3 C -175.8 402.7 -177 403.2 -178.2 403.6 C -189.4 407.7 -199 409.4 -210.9 409.3 C -213 409.3 -215.2 409.3 -217.3 409.4 C -244.2 409.5 -269.7 400 -289.2 381.2 C -291.9 378.5 -294.4 375.8 -297 373 C -297.7 372.3 -298.3 371.6 -299 370.8 C -324.3 340.6 -331.3 299 -335 261 C -335.1 260 -335.2 259 -335.3 257.9 C -336.4 245 -336.2 232.1 -336.2 219.1 C -336.2 217.2 -336.2 217.2 -336.2 215.2 C -336.1 184.8 -334.1 155.1 -330.5 125 C -330.1 121.6 -329.7 118.2 -329.3 114.8 C -327.9 102.1 -325.8 89.7 -323.6 77.2 C -323.4 76.4 -323.3 75.6 -323.1 74.7 C -321.5 65.8 -319.8 56.8 -317.9 47.9 C -317.8 47.1 -317.6 46.4 -317.5 45.6 C -314.7 32.7 -311.1 20.2 -306 8 C -321.3 12.4 -333.7 23 -341.6 36.8 C -342.3 37.9 -344.3 39 -345 39 C -345.3 39.7 -345.5 40.4 -345.8 41.2 C -347 43.9 -348.3 46.5 -349.7 49.1 C -350.2 50 -350.8 51 -351.3 52 C -352.9 54.9 -354.7 57.7 -356.4 60.6 C -362.8 71.5 -367.9 83.2 -371.1 95.5 C -372 98.1 -372.9 99.2 -375 101 C -376 102 -376 102 -377 103 C -379.2 100.8 -379.7 100 -380 97 C -379.1 94.8 -379.1 94.8 -377.8 92.4 C -376 89.2 -374.6 85.9 -373.2 82.5 C -370.6 75.9 -367.5 69.6 -364.4 63.3 C -364.1 62.7 -363.8 62.1 -363.4 61.4 C -358.6 51.8 -353.4 42.7 -347 34 C -346.2 32.9 -346.2 32.9 -345.4 31.8 C -337.4 20.4 -325.4 5.7 -311 3 C -307.6 2.8 -304.4 2.8 -301 3 C -299.8 6.4 -300.2 8.1 -301.7 11.4 C -306.4 22.3 -308.9 34.1 -311.4 45.8 C -311.5 46.4 -311.7 47.1 -311.8 47.8 C -317.6 74.6 -323.3 102.2 -324.8 129.6 C -325 132 -325 132 -326 135 C -329.7 161.4 -330.4 188.1 -330.4 214.7 C -330.4 217 -330.4 219.2 -330.5 221.4 C -330.6 257.3 -327.6 292.8 -316 327 C -315.8 327.7 -315.5 328.5 -315.2 329.2 C -312.3 337.7 -309 345.5 -304 353 C -303.5 353.9 -303 354.7 -302.5 355.6 C -288.3 379 -267.8 393.6 -241.6 401 C -209.9 408.3 -178.2 400.9 -150.9 384.1 C -134.5 373.4 -119.7 359.8 -108 344 C -107.1 342.8 -106.2 341.7 -105.4 340.5 C -97.1 329.4 -89.4 318.2 -83 306 C -82.2 304.5 -81.4 303.1 -80.7 301.6 C -70.6 282.8 -62 263.6 -54.4 243.6 C -54.2 243 -54 242.4 -53.7 241.7 C -50.5 233.3 -47.5 224.9 -45 216.3 C -44.3 213.8 -43.5 211.6 -42.5 209.2 C -40.7 204.5 -39.6 199.5 -38.5 194.6 C -37.4 189.5 -36.2 184.5 -34.5 179.6 C -32.6 174 -31.4 168.2 -30.1 162.4 C -26.9 148.3 -26.9 148.3 -25.4 142.5 C -24 137 -22.7 131.6 -21.7 126 C -21.4 124.6 -21.1 123.2 -20.9 121.8 C -20.7 120.6 -20.7 120.6 -20.5 119.5 C -19.8 115.9 -19.1 112.3 -18.4 108.7 C -17.7 104.7 -16.9 100.6 -16.1 96.6 C -15.8 94.5 -15.4 92.5 -15 90.4 C -12.3 76.2 -9.8 61.9 -7.4 47.5 C -6.9 44.3 -6.3 41.1 -5.8 38 C -4.1 28 -2.5 18.1 -1.4 8.1 C -1 5.4 -0.6 2.7 0 0 Z" fill="#5B3D0E" transform="translate(777,619)"></path>
  <path d="M 0 0 C 0.5 2 0.5 2 1 4 C 1.7 4 2.3 4 3 4 C 3.3 4.7 3.7 5.3 4 6 C 10.6 18.4 18.9 29.2 29 38.9 C 29.8 39.6 29.8 39.6 30.5 40.4 C 32 41.7 33.5 43.1 34.9 44.5 C 37 47 37 47 37.3 49.8 C 37.2 50.9 38.1 52.5 38.7 52.8 C 41.4 54.2 43.6 56 46 58 C 45.4 60.9 44.4 63.5 43.1 66.2 C 42.8 66.9 42.5 67.6 42.1 68.3 C 41 70 41 70 38 71 C 36.5 71 35 70.9 33.4 70.8 C 21.7 70.8 13.6 77.5 5.6 85.4 C -0.1 91.1 -5.1 97.1 -9.2 104 C -10.4 106 -11.6 107.9 -12.8 109.9 C -17.6 117.4 -21.8 125.2 -25.8 133.2 C -26.8 135.2 -27.7 137.1 -28.7 139.1 C -32.1 145.9 -35.3 152.8 -38 160 C -38.6 161.5 -39.2 163 -39.8 164.5 C -42.9 172.3 -45.8 180.2 -48.2 188.3 C -49 191 -49 191 -50.5 194.4 C -53.6 201.7 -55.6 209.5 -57 217.2 C -57.6 220.6 -58.5 223.5 -59.9 226.6 C -62.5 232.8 -63.9 239.3 -65.5 245.8 C -66.1 248.3 -66.8 250.7 -67.5 253.1 C -69.3 259.8 -70.4 266.6 -71.6 273.5 C -72 276 -72.4 278.5 -72.8 281 C -73 282.2 -73.2 283.4 -73.4 284.6 C -73.9 287.7 -74.5 290.7 -75.1 293.7 C -76.1 299 -76.4 304.2 -76.5 309.6 C -76.8 319.3 -77.3 328.9 -77.9 338.5 C -78 340 -81.1 375 -81.2 382.5 C -81.5 392.8 -82.1 402.9 -83.8 413.1 C -84 414 -84.1 415 -84.3 416 C -86 425.7 -89 436.1 -97.1 442.4 C -101.8 444.8 -106.8 444.6 -112 444 C -117.3 442.2 -119.8 439.4 -123 435 C -123 434.3 -123.778 433.7 -123.778 433 C -123.086 433.101 -121.087 434.648 -119 435 C -116.7 435 -114.4 435 -112 435 C -111.385 434.042 -109.954 433.186 -110 433 C -109.7 432.3 -109.5 431.6 -109.2 430.9 C -108 427.9 -106.5 425.2 -105 422.4 C -102.6 417.5 -101.1 413.2 -100.4 407.9 C -100 405 -100 405 -99 401.2 C -97.6 394.8 -97.2 388.3 -96.7 381.8 C -96.5 378.6 -96.2 375.4 -96 372.2 C -95.8 370.5 -95.7 368.9 -95.6 367.2 C -93.9 346.2 -91.9 325.2 -88.5 304.3 C -88 300.8 -87.4 297.3 -86.9 293.8 C -86.6 291.4 -86.2 289 -85.9 286.7 C -85.7 285.6 -85.6 284.5 -85.4 283.4 C -84.6 278.4 -83.7 273.8 -82 269 C -81.1 265 -80.3 261 -79.5 257.1 C -78.2 250.6 -76.9 244.3 -75 238 C -74.5 236.5 -74.1 234.9 -73.6 233.4 C -72.1 228.3 -65 205 -64 202.5 C -62.9 199.8 -49.8 162.9 -48.8 160.3 C -46.3 153.3 -43.3 146.5 -39.9 139.9 C -38.4 136.7 -33.9 128.7 -33.8 128.1 C -32.7 123.7 -30.6 120.1 -28.4 116.2 C -28 115.4 -27.6 114.6 -27.2 113.8 C -26.1 111.9 -25.1 109.9 -24 108 C -23.3 108 -21.5 106.3 -21.2 105.4 C -19.9 101.8 -18.736 101.265 -16.436 98.265 C -15.736 98.265 -13.6 94.7 -13.4 94 C -11.5 89.9 -9 86.3 -6 83 C -5.3 83 -3.5 81.5 -3 80 C -2.3 80 -1 78.7 -1 78 C 0 77.7 1 77.3 2 77 C 3.4 75.5 3.4 75.5 4.7 73.8 C 10.2 67.2 17.9 63.5 26 61 C 27.3 61 32.3 58 33 58 C 34.4 54.8 34.9 52.4 34 49 C 30.8 45.9 27.4 43.4 23.8 40.8 C 11.7 32.1 4.2 19.2 -2 6 C -1.3 6 -0.7 6 0 6 C 0 4 0 2 0 0 Z" fill="#E5CFAD" transform="translate(438,552)"></path>
  <ellipse style="stroke: rgba(2, 1, 1, 0); fill: rgb(34, 21, 8); stroke-width: 1;" cx="542.341" cy="209.032" rx="19.478" ry="29.293"></ellipse>
  <ellipse style="stroke: rgba(2, 1, 1, 0); fill: rgb(34, 21, 8); stroke-width: 1;" cx="688.437" cy="207.553" rx="19.478" ry="29.293"></ellipse>
  <ellipse style="fill-rule: nonzero; paint-order: fill; stroke-width: 4; stroke: rgb(81, 40, 6); fill: rgb(253, 152, 36);" cx="617.608" cy="301.384" rx="81.877" ry="42.425"></ellipse>
  <path d="M 494.108 1087.24 C 494.825 1087.73 495.542 1088.21 496.28 1088.7 C 496.914 1089.1 497.549 1089.5 498.202 1089.91 C 504.849 1094.77 509.676 1103.7 511.28 1111.7 C 511.37 1113.27 511.411 1114.84 511.413 1116.41 C 511.414 1117.31 511.416 1118.2 511.417 1119.13 C 511.413 1120.06 511.409 1120.99 511.405 1121.95 C 511.409 1122.87 511.413 1123.79 511.417 1124.73 C 511.409 1130.15 511.073 1135.34 510.28 1140.7 C 511.27 1138.72 512.26 1136.74 513.28 1134.7 C 517.19 1136.01 518.371 1138.25 520.28 1141.7 C 529.515 1161.02 534.167 1183.74 528.386 1204.8 C 525.983 1211.11 522.671 1217.56 516.905 1221.39 C 511.307 1223.42 507.145 1223.95 501.577 1221.53 C 497.962 1219.57 494.464 1217.52 491.073 1215.19 C 484.425 1210.89 478.043 1210.72 470.28 1211.7 C 467.557 1212.51 465.088 1213.5 462.511 1214.68 C 456.423 1217.47 449.941 1218.5 443.28 1217.7 C 437.274 1215.33 433.185 1209.54 430.155 1204.02 C 427.869 1199.98 426.076 1197.48 421.772 1195.62 C 416.437 1194.22 411.118 1194.35 405.624 1194.31 C 400.059 1194.16 396.62 1193.54 392.28 1189.7 C 389.344 1185.43 389.605 1180.68 390.28 1175.7 C 392.882 1167.66 398.459 1160.71 404.28 1154.7 C 405.765 1154.21 405.765 1154.21 407.28 1153.7 C 407.775 1152.22 407.775 1152.22 408.28 1150.7 C 410.39 1148.86 412.493 1147.15 414.718 1145.45 C 415.356 1144.96 415.994 1144.47 416.651 1143.97 C 418.521 1142.54 420.399 1141.12 422.28 1139.7 C 423.146 1139.05 424.013 1138.39 424.905 1137.71 C 442.684 1124.7 442.684 1124.7 449.28 1124.7 C 450.27 1127.34 451.26 1129.98 452.28 1132.7 C 452.378 1131.35 452.476 1130 452.577 1128.6 C 453.813 1112.95 455.031 1097.85 466.796 1086.2 C 474.514 1080.59 486.448 1082.71 494.108 1087.24 Z" fill="#FD9622" style="stroke-width: 1;"></path>
  <path d="M 755.681 1084.89 C 763.998 1091.22 767.328 1100.51 768.877 1110.61 C 769.429 1115.52 769.65 1120.45 769.869 1125.39 C 769.912 1126.3 769.955 1127.22 770 1128.17 C 770.105 1130.41 770.206 1132.65 770.306 1134.89 C 771.296 1131.59 772.286 1128.29 773.306 1124.89 C 792.657 1129.72 815.662 1150.22 825.869 1166.82 C 829.904 1173.64 831.29 1178.97 830.306 1186.89 C 829.009 1189.84 827.906 1190.73 825.306 1192.89 C 818.806 1195.29 812.468 1195.24 805.601 1195.28 C 800.033 1195.43 796.679 1196.1 792.306 1199.89 C 790.736 1201.75 790.736 1201.75 789.681 1203.76 C 789.279 1204.45 788.877 1205.15 788.463 1205.86 C 787.89 1206.86 787.89 1206.86 787.306 1207.89 C 781.36 1217.16 781.36 1217.16 774.306 1218.89 C 765.522 1219.62 758.381 1216.86 750.494 1213.2 C 743.41 1210.19 736.3 1209.4 728.838 1211.62 C 726.576 1212.59 724.459 1213.69 722.306 1214.89 C 720.517 1215.79 718.726 1216.68 716.931 1217.57 C 716.119 1217.99 715.307 1218.41 714.47 1218.84 C 710.149 1220.93 706.048 1221.76 701.306 1220.89 C 694.546 1217.46 690.909 1212.35 688.404 1205.37 C 682.129 1184.2 688.425 1162.85 698.306 1143.89 C 700.853 1139.38 703.779 1135.67 707.306 1131.89 C 708.133 1134.78 708.306 1136.77 708.306 1139.89 C 708.966 1139.89 709.626 1139.89 710.306 1139.89 C 710.271 1138.58 710.237 1137.28 710.201 1135.93 C 709.879 1118.95 711.566 1105.82 723.681 1093.01 C 732.485 1084.61 743.809 1081.37 755.681 1084.89 Z" fill="#FD9523" style="stroke-width: 1;"></path>
  <ellipse style="fill: rgb(252, 181, 70); stroke: rgba(0, 0, 0, 0); stroke-width: 1; transform-origin: 588.208px 239.867px;" cx="588.208" cy="239.867" rx="18.026" ry="6.779" transform="matrix(0.96047, -0.278384, 0.276077, 0.961139, -14.520955, 34.911602)"></ellipse>
  <path style="fill: rgba(216, 216, 216, 0); stroke: rgb(91, 61, 14); stroke-width: 6px;" d="M 843.28 714.273 C 860.552 772.821 878.055 874.171 877.97 873.984"></path>
  <path style="fill: rgb(216, 216, 216); stroke: rgb(91, 61, 14); stroke-width: 5px;" d="M 845.613 762.191 C 846.002 767.249 846.83 836.05 846.717 834.579" id="object-0"></path>
</svg>